<svg width="1733" height="2098" xmlns="http://www.w3.org/2000/svg" xmlns:xlink="http://www.w3.org/1999/xlink" xml:space="preserve" overflow="hidden"><defs><clipPath id="clip0"><rect x="2031" y="176" width="1733" height="2098"/></clipPath></defs><g clip-path="url(#clip0)" transform="translate(-2031 -176)"><path d="M2895 252.459C2457.29 252.459 2102.46 607.292 2102.46 1045 2102.46 1482.71 2457.29 1837.54 2895 1837.54 3332.71 1837.54 3687.54 1482.71 3687.54 1045 3687.54 607.292 3332.71 252.459 2895 252.459ZM2895 181C3372.17 181 3759 567.826 3759 1045 3759 1522.17 3372.17 1909 2895 1909 2417.83 1909 2031 1522.17 2031 1045 2031 567.826 2417.83 181 2895 181Z" fill="#FCDD9C" fill-rule="evenodd"/><path d="M0 0 1213.18 1221.64" stroke="#FFFFFF" stroke-width="16.0417" stroke-miterlimit="8" fill="none" fill-rule="evenodd" transform="matrix(0.898794 0.438371 0.438371 -0.898794 2081.87 1328.08)"/><path d="M3172.27 1859.9 2617.4 230.076" stroke="#FFFFFF" stroke-width="16.0417" stroke-miterlimit="8" fill="none" fill-rule="evenodd"/><path d="M0 0 1213.18 1221.64" stroke="#FFFFFF" stroke-width="16.0417" stroke-miterlimit="8" fill="none" fill-rule="evenodd" transform="matrix(0.882948 0.469472 0.469472 -0.882948 2072.49 1299.54)"/><path d="M3143.66 1869.09 2646.01 220.889" stroke="#FFFFFF" stroke-width="16.0417" stroke-miterlimit="8" fill="none" fill-rule="evenodd"/><path d="M0 0 1213.18 1221.64" stroke="#FFFFFF" stroke-width="16.0417" stroke-miterlimit="8" fill="none" fill-rule="evenodd" transform="matrix(0.866025 0.5 0.5 -0.866025 2064.1 1270.68)"/><path d="M3114.75 1877.27 2674.92 212.708" stroke="#FFFFFF" stroke-width="16.0417" stroke-miterlimit="8" fill="none" fill-rule="evenodd"/><path d="M3501.18 1655.64 2288 434" stroke="#FFFFFF" stroke-width="16.0417" stroke-miterlimit="8" fill="none" fill-rule="evenodd"/><path d="M0 0 1213.18 1221.64" stroke="#FFFFFF" stroke-width="16.0417" stroke-miterlimit="8" fill="none" fill-rule="evenodd" transform="matrix(1 0 0 -1 2288 1655.64)"/><path d="M0 0 1213.18 1221.64" stroke="#FFFFFF" stroke-width="16.0417" stroke-miterlimit="8" fill="none" fill-rule="evenodd" transform="matrix(0.999391 0.0348995 0.0348995 -0.999391 2267.3 1634.27)"/><path d="M3479.74 1676.61 2309.93 413.371" stroke="#FFFFFF" stroke-width="16.0417" stroke-miterlimit="8" fill="none" fill-rule="evenodd"/><path d="M0 0 1213.18 1221.64" stroke="#FFFFFF" stroke-width="16.0417" stroke-miterlimit="8" fill="none" fill-rule="evenodd" transform="matrix(0.997564 0.0697565 0.0697565 -0.997564 2247.12 1612.01)"/><path d="M3457.34 1696.64 2332.33 393.343" stroke="#FFFFFF" stroke-width="16.0417" stroke-miterlimit="8" fill="none" fill-rule="evenodd"/><path d="M0 0 1213.18 1221.64" stroke="#FFFFFF" stroke-width="16.0417" stroke-miterlimit="8" fill="none" fill-rule="evenodd" transform="matrix(0.994522 0.104528 0.104528 -0.994522 2227.72 1589.06)"/><path d="M3434.26 1715.87 2355.42 374.109" stroke="#FFFFFF" stroke-width="16.0417" stroke-miterlimit="8" fill="none" fill-rule="evenodd"/><path d="M0 0 1213.18 1221.64" stroke="#FFFFFF" stroke-width="16.0417" stroke-miterlimit="8" fill="none" fill-rule="evenodd" transform="matrix(0.990268 0.139173 0.139173 -0.990268 2209.14 1565.45)"/><path d="M3410.52 1734.29 2379.16 355.692" stroke="#FFFFFF" stroke-width="16.0417" stroke-miterlimit="8" fill="none" fill-rule="evenodd"/><path d="M0 0 1213.18 1221.64" stroke="#FFFFFF" stroke-width="16.0417" stroke-miterlimit="8" fill="none" fill-rule="evenodd" transform="matrix(0.984808 0.173648 0.173648 -0.984808 2191.39 1541.2)"/><path d="M3386.15 1751.86 2403.53 338.115" stroke="#FFFFFF" stroke-width="16.0417" stroke-miterlimit="8" fill="none" fill-rule="evenodd"/><path d="M0 0 1213.18 1221.64" stroke="#FFFFFF" stroke-width="16.0417" stroke-miterlimit="8" fill="none" fill-rule="evenodd" transform="matrix(0.978148 0.207912 0.207912 -0.978148 2174.51 1516.35)"/><path d="M3361.18 1768.58 2428.5 321.399" stroke="#FFFFFF" stroke-width="16.0417" stroke-miterlimit="8" fill="none" fill-rule="evenodd"/><path d="M0 0 1213.18 1221.64" stroke="#FFFFFF" stroke-width="16.0417" stroke-miterlimit="8" fill="none" fill-rule="evenodd" transform="matrix(0.970296 0.241922 0.241922 -0.970296 2158.49 1490.92)"/><path d="M3335.64 1784.41 2454.04 305.565" stroke="#FFFFFF" stroke-width="16.0417" stroke-miterlimit="8" fill="none" fill-rule="evenodd"/><path d="M0 0 1213.18 1221.64" stroke="#FFFFFF" stroke-width="16.0417" stroke-miterlimit="8" fill="none" fill-rule="evenodd" transform="matrix(0.961262 0.275637 0.275637 -0.961262 2143.38 1464.95)"/><path d="M3309.57 1799.35 2480.11 290.632" stroke="#FFFFFF" stroke-width="16.0417" stroke-miterlimit="8" fill="none" fill-rule="evenodd"/><path d="M0 0 1213.18 1221.64" stroke="#FFFFFF" stroke-width="16.0417" stroke-miterlimit="8" fill="none" fill-rule="evenodd" transform="matrix(0.951057 0.309017 0.309017 -0.951057 2129.18 1438.47)"/><path d="M3282.99 1813.36 2506.69 276.618" stroke="#FFFFFF" stroke-width="16.0417" stroke-miterlimit="8" fill="none" fill-rule="evenodd"/><path d="M0 0 1213.18 1221.64" stroke="#FFFFFF" stroke-width="16.0417" stroke-miterlimit="8" fill="none" fill-rule="evenodd" transform="matrix(0.939693 0.34202 0.34202 -0.939693 2115.92 1411.51)"/><path d="M3255.93 1826.44 2533.74 263.539" stroke="#FFFFFF" stroke-width="16.0417" stroke-miterlimit="8" fill="none" fill-rule="evenodd"/><path d="M0 0 1213.18 1221.64" stroke="#FFFFFF" stroke-width="16.0417" stroke-miterlimit="8" fill="none" fill-rule="evenodd" transform="matrix(0.927184 0.374607 0.374607 -0.927184 2103.6 1384.1)"/><path d="M3228.44 1838.57 2561.23 251.413" stroke="#FFFFFF" stroke-width="16.0417" stroke-miterlimit="8" fill="none" fill-rule="evenodd"/><path d="M0 0 1213.18 1221.64" stroke="#FFFFFF" stroke-width="16.0417" stroke-miterlimit="8" fill="none" fill-rule="evenodd" transform="matrix(0.913545 0.406737 0.406737 -0.913545 2092.25 1356.28)"/><path d="M3200.54 1849.73 2589.13 240.254" stroke="#FFFFFF" stroke-width="16.0417" stroke-miterlimit="8" fill="none" fill-rule="evenodd"/><path d="M0 0 1213.18 1221.64" stroke="#FFFFFF" stroke-width="16.0417" stroke-miterlimit="8" fill="none" fill-rule="evenodd" transform="matrix(0.898794 0.438371 0.438371 -0.898794 2081.87 1328.08)"/><path d="M3172.27 1859.9 2617.4 230.076" stroke="#FFFFFF" stroke-width="16.0417" stroke-miterlimit="8" fill="none" fill-rule="evenodd"/><path d="M0 0 1213.18 1221.64" stroke="#FFFFFF" stroke-width="16.0417" stroke-miterlimit="8" fill="none" fill-rule="evenodd" transform="matrix(0.882948 0.469472 0.469472 -0.882948 2072.49 1299.54)"/><path d="M3143.66 1869.09 2646.01 220.889" stroke="#FFFFFF" stroke-width="16.0417" stroke-miterlimit="8" fill="none" fill-rule="evenodd"/><path d="M0 0 1213.18 1221.64" stroke="#FFFFFF" stroke-width="16.0417" stroke-miterlimit="8" fill="none" fill-rule="evenodd" transform="matrix(0.866025 0.5 0.5 -0.866025 2064.1 1270.68)"/><path d="M3114.75 1877.27 2674.92 212.708" stroke="#FFFFFF" stroke-width="16.0417" stroke-miterlimit="8" fill="none" fill-rule="evenodd"/><path d="M0 0 1213.18 1221.64" stroke="#FFFFFF" stroke-width="16.0417" stroke-miterlimit="8" fill="none" fill-rule="evenodd" transform="matrix(0.848048 0.529919 0.529919 -0.848048 2056.73 1241.55)"/><path d="M3085.57 1884.44 2704.1 205.54" stroke="#FFFFFF" stroke-width="16.0417" stroke-miterlimit="8" fill="none" fill-rule="evenodd"/><path d="M0 0 1213.18 1221.64" stroke="#FFFFFF" stroke-width="16.0417" stroke-miterlimit="8" fill="none" fill-rule="evenodd" transform="matrix(0.829038 0.559193 0.559193 -0.829038 2050.38 1212.18)"/><path d="M3056.16 1890.59 2733.52 199.395" stroke="#FFFFFF" stroke-width="16.0417" stroke-miterlimit="8" fill="none" fill-rule="evenodd"/><path d="M0 0 1213.18 1221.64" stroke="#FFFFFF" stroke-width="16.0417" stroke-miterlimit="8" fill="none" fill-rule="evenodd" transform="matrix(0.809017 0.587785 0.587785 -0.809017 2045.06 1182.61)"/><path d="M3026.55 1895.7 2763.13 194.28" stroke="#FFFFFF" stroke-width="16.0417" stroke-miterlimit="8" fill="none" fill-rule="evenodd"/><path d="M0 0 1213.18 1221.64" stroke="#FFFFFF" stroke-width="16.0417" stroke-miterlimit="8" fill="none" fill-rule="evenodd" transform="matrix(0.788011 0.615661 0.615661 -0.788011 2040.78 1152.87)"/><path d="M2996.78 1899.78 2792.9 190.201" stroke="#FFFFFF" stroke-width="16.0417" stroke-miterlimit="8" fill="none" fill-rule="evenodd"/><path d="M0 0 1213.18 1221.64" stroke="#FFFFFF" stroke-width="16.0417" stroke-miterlimit="8" fill="none" fill-rule="evenodd" transform="matrix(0.766044 0.642788 0.642788 -0.766044 2037.53 1123)"/><path d="M2966.89 1902.82 2822.79 187.164" stroke="#FFFFFF" stroke-width="16.0417" stroke-miterlimit="8" fill="none" fill-rule="evenodd"/><path d="M0 0 1213.18 1221.64" stroke="#FFFFFF" stroke-width="16.0417" stroke-miterlimit="8" fill="none" fill-rule="evenodd" transform="matrix(0.743145 0.669131 0.669131 -0.743145 2035.33 1093.03)"/><path d="M2936.9 1904.81 2852.77 185.172" stroke="#FFFFFF" stroke-width="16.0417" stroke-miterlimit="8" fill="none" fill-rule="evenodd"/><path d="M0 0 1213.18 1221.64" stroke="#FFFFFF" stroke-width="16.0417" stroke-miterlimit="8" fill="none" fill-rule="evenodd" transform="matrix(0.71934 0.694658 0.694658 -0.71934 2034.18 1063)"/><path d="M2906.87 1905.75 2882.8 184.228" stroke="#FFFFFF" stroke-width="16.0417" stroke-miterlimit="8" fill="none" fill-rule="evenodd"/><path d="M0 0 1213.18 1221.64" stroke="#FFFFFF" stroke-width="16.0417" stroke-miterlimit="8" fill="none" fill-rule="evenodd" transform="matrix(0.694658 0.71934 0.71934 -0.694658 2034.08 1032.96)"/><path d="M2876.82 1905.65 2912.85 184.333" stroke="#FFFFFF" stroke-width="16.0417" stroke-miterlimit="8" fill="none" fill-rule="evenodd"/><path d="M0 0 1213.18 1221.64" stroke="#FFFFFF" stroke-width="16.0417" stroke-miterlimit="8" fill="none" fill-rule="evenodd" transform="matrix(0.669131 0.743145 0.743145 -0.669131 2035.02 1002.92)"/><path d="M2846.8 1904.49 2942.88 185.486" stroke="#FFFFFF" stroke-width="16.0417" stroke-miterlimit="8" fill="none" fill-rule="evenodd"/><path d="M0 0 1213.18 1221.64" stroke="#FFFFFF" stroke-width="16.0417" stroke-miterlimit="8" fill="none" fill-rule="evenodd" transform="matrix(0.642788 0.766044 0.766044 -0.642788 2037.01 972.942)"/><path d="M2816.83 1902.29 2972.84 187.686" stroke="#FFFFFF" stroke-width="16.0417" stroke-miterlimit="8" fill="none" fill-rule="evenodd"/><path d="M0 0 1213.18 1221.64" stroke="#FFFFFF" stroke-width="16.0417" stroke-miterlimit="8" fill="none" fill-rule="evenodd" transform="matrix(0.615661 0.788011 0.788011 -0.615661 2040.05 943.048)"/><path d="M2786.96 1899.05 3002.72 190.93" stroke="#FFFFFF" stroke-width="16.0417" stroke-miterlimit="8" fill="none" fill-rule="evenodd"/><path d="M0 0 1213.18 1221.64" stroke="#FFFFFF" stroke-width="16.0417" stroke-miterlimit="8" fill="none" fill-rule="evenodd" transform="matrix(0.587785 0.809017 0.809017 -0.587785 2044.13 913.279)"/><path d="M2757.22 1894.76 3032.46 195.215" stroke="#FFFFFF" stroke-width="16.0417" stroke-miterlimit="8" fill="none" fill-rule="evenodd"/><path d="M0 0 1213.18 1221.64" stroke="#FFFFFF" stroke-width="16.0417" stroke-miterlimit="8" fill="none" fill-rule="evenodd" transform="matrix(0.559193 0.829038 0.829038 -0.559193 2049.24 883.67)"/><path d="M2727.65 1889.44 3062.03 200.536" stroke="#FFFFFF" stroke-width="16.0417" stroke-miterlimit="8" fill="none" fill-rule="evenodd"/><path d="M0 0 1213.18 1221.64" stroke="#FFFFFF" stroke-width="16.0417" stroke-miterlimit="8" fill="none" fill-rule="evenodd" transform="matrix(0.529919 0.848048 0.848048 -0.529919 2055.39 854.257)"/><path d="M2698.28 1883.09 3091.4 206.885" stroke="#FFFFFF" stroke-width="16.0417" stroke-miterlimit="8" fill="none" fill-rule="evenodd"/><path d="M0 0 1213.18 1221.64" stroke="#FFFFFF" stroke-width="16.0417" stroke-miterlimit="8" fill="none" fill-rule="evenodd" transform="matrix(0.5 0.866025 0.866025 -0.5 2062.56 825.077)"/><path d="M2669.15 1875.72 3120.53 214.256" stroke="#FFFFFF" stroke-width="16.0417" stroke-miterlimit="8" fill="none" fill-rule="evenodd"/><path d="M0 0 1213.18 1221.64" stroke="#FFFFFF" stroke-width="16.0417" stroke-miterlimit="8" fill="none" fill-rule="evenodd" transform="matrix(0.469472 0.882948 0.882948 -0.469472 2070.74 796.164)"/><path d="M2640.29 1867.34 3149.38 222.638" stroke="#FFFFFF" stroke-width="16.0417" stroke-miterlimit="8" fill="none" fill-rule="evenodd"/><path d="M0 0 1213.18 1221.64" stroke="#FFFFFF" stroke-width="16.0417" stroke-miterlimit="8" fill="none" fill-rule="evenodd" transform="matrix(0.438371 0.898794 0.898794 -0.438371 2079.92 767.555)"/><path d="M2611.75 1857.96 3177.93 232.023" stroke="#FFFFFF" stroke-width="16.0417" stroke-miterlimit="8" fill="none" fill-rule="evenodd"/><path d="M0 0 1213.18 1221.64" stroke="#FFFFFF" stroke-width="16.0417" stroke-miterlimit="8" fill="none" fill-rule="evenodd" transform="matrix(0.406737 0.913545 0.913545 -0.406737 2090.1 739.284)"/><path d="M2583.55 1847.58 3206.13 242.398" stroke="#FFFFFF" stroke-width="16.0417" stroke-miterlimit="8" fill="none" fill-rule="evenodd"/><path d="M0 0 1213.18 1221.64" stroke="#FFFFFF" stroke-width="16.0417" stroke-miterlimit="8" fill="none" fill-rule="evenodd" transform="matrix(0.374607 0.927184 0.927184 -0.374607 2101.26 711.386)"/><path d="M2555.73 1836.23 3233.95 253.75" stroke="#FFFFFF" stroke-width="16.0417" stroke-miterlimit="8" fill="none" fill-rule="evenodd"/><path d="M0 0 1213.18 1221.64" stroke="#FFFFFF" stroke-width="16.0417" stroke-miterlimit="8" fill="none" fill-rule="evenodd" transform="matrix(0.34202 0.939693 0.939693 -0.34202 2113.39 683.893)"/><path d="M2528.32 1823.91 3261.36 266.067" stroke="#FFFFFF" stroke-width="16.0417" stroke-miterlimit="8" fill="none" fill-rule="evenodd"/><path d="M0 0 1213.18 1221.64" stroke="#FFFFFF" stroke-width="16.0417" stroke-miterlimit="8" fill="none" fill-rule="evenodd" transform="matrix(0.309017 0.951057 0.951057 -0.309017 2126.47 656.841)"/><path d="M2501.36 1810.65 3288.32 279.333" stroke="#FFFFFF" stroke-width="16.0417" stroke-miterlimit="8" fill="none" fill-rule="evenodd"/><path d="M0 0 1213.18 1221.64" stroke="#FFFFFF" stroke-width="16.0417" stroke-miterlimit="8" fill="none" fill-rule="evenodd" transform="matrix(0.275637 0.961262 0.961262 -0.275637 2140.48 630.262)"/><path d="M2474.88 1796.45 3314.8 293.531" stroke="#FFFFFF" stroke-width="16.0417" stroke-miterlimit="8" fill="none" fill-rule="evenodd"/><path d="M0 0 1213.18 1221.64" stroke="#FFFFFF" stroke-width="16.0417" stroke-miterlimit="8" fill="none" fill-rule="evenodd" transform="matrix(0.241922 0.970296 0.970296 -0.241922 2155.41 604.188)"/><path d="M2448.91 1781.33 3340.77 308.646" stroke="#FFFFFF" stroke-width="16.0417" stroke-miterlimit="8" fill="none" fill-rule="evenodd"/><path d="M0 0 1213.18 1221.64" stroke="#FFFFFF" stroke-width="16.0417" stroke-miterlimit="8" fill="none" fill-rule="evenodd" transform="matrix(0.207912 0.978148 0.978148 -0.207912 2171.25 578.651)"/><path d="M2423.48 1765.32 3366.19 324.657" stroke="#FFFFFF" stroke-width="16.0417" stroke-miterlimit="8" fill="none" fill-rule="evenodd"/><path d="M0 0 1213.18 1221.64" stroke="#FFFFFF" stroke-width="16.0417" stroke-miterlimit="8" fill="none" fill-rule="evenodd" transform="matrix(0.173648 0.984808 0.984808 -0.173648 2187.96 553.682)"/><path d="M2398.63 1748.43 3391.05 341.546" stroke="#FFFFFF" stroke-width="16.0417" stroke-miterlimit="8" fill="none" fill-rule="evenodd"/><path d="M0 0 1213.18 1221.64" stroke="#FFFFFF" stroke-width="16.0417" stroke-miterlimit="8" fill="none" fill-rule="evenodd" transform="matrix(0.139173 0.990268 0.990268 -0.139173 2205.54 529.312)"/><path d="M2374.38 1730.69 3415.29 359.292" stroke="#FFFFFF" stroke-width="16.0417" stroke-miterlimit="8" fill="none" fill-rule="evenodd"/><path d="M0 0 1213.18 1221.64" stroke="#FFFFFF" stroke-width="16.0417" stroke-miterlimit="8" fill="none" fill-rule="evenodd" transform="matrix(0.104528 0.994522 0.994522 -0.104528 2223.96 505.57)"/><path d="M2350.77 1712.11 3438.91 377.873" stroke="#FFFFFF" stroke-width="16.0417" stroke-miterlimit="8" fill="none" fill-rule="evenodd"/><path d="M0 0 1213.18 1221.64" stroke="#FFFFFF" stroke-width="16.0417" stroke-miterlimit="8" fill="none" fill-rule="evenodd" transform="matrix(0.0697565 0.997564 0.997564 -0.0697565 2243.19 482.485)"/><path d="M2327.82 1692.71 3461.86 397.267" stroke="#FFFFFF" stroke-width="16.0417" stroke-miterlimit="8" fill="none" fill-rule="evenodd"/><path d="M0 0 1213.18 1221.64" stroke="#FFFFFF" stroke-width="16.0417" stroke-miterlimit="8" fill="none" fill-rule="evenodd" transform="matrix(0.0348995 0.999391 0.999391 -0.0348995 2263.22 460.085)"/><path d="M2305.56 1672.53 3484.12 417.451" stroke="#FFFFFF" stroke-width="16.0417" stroke-miterlimit="8" fill="none" fill-rule="evenodd"/><path d="M2123 1222 3667 1222 3651.96 1280.55C3551.61 1603.51 3250.66 1838 2895 1838 2539.34 1838 2238.39 1603.51 2138.04 1280.55L2123 1222Z" stroke="#FCDD9C" stroke-width="27.5" stroke-miterlimit="8" fill="#50760C" fill-rule="evenodd"/><path d="M2196 1419 3594 1419 3591.97 1423.22C3457.74 1670.28 3195.96 1838 2895 1838 2594.04 1838 2332.26 1670.28 2198.03 1423.22L2196 1419Z" stroke="#FCDD9C" stroke-width="27.5" stroke-miterlimit="8" fill="#A54215" fill-rule="evenodd"/><path d="M2894.5 252C3332.19 252 3687 606.932 3687 1044.76 3687 1099.49 3681.46 1152.92 3670.9 1204.53L3666.41 1222 2122.59 1222 2118.1 1204.53C2107.54 1152.92 2102 1099.49 2102 1044.76 2102 606.932 2456.81 252 2894.5 252Z" stroke="#FCDD9C" stroke-width="27.5" stroke-miterlimit="8" fill="#058B73" fill-rule="evenodd"/><path d="M2959.5 1124.5C2999.25 1104.45 3059.44 1133.47 3133.98 1124.5 3208.52 1115.53 3229.94 1130.12 3293.92 1124.5 3357.9 1118.88 3439.89 1137.71 3490.21 1124.5 3540.53 1111.29 3638.51 1140 3686.5 1124.5 3687.81 1128.02 3686.24 1133.07 3686.5 1137.5 3607.02 1155.07 3589.92 1125.69 3519.29 1137.5 3448.66 1149.31 3386.21 1125.17 3352.08 1137.5 3317.95 1149.83 3204.16 1127.13 3155.79 1137.5 3107.42 1147.87 3038.81 1126.61 2959.5 1137.5 2959.47 1132.39 2960.59 1127.74 2959.5 1124.5Z" fill="#FCDD9C" fill-rule="evenodd"/><path d="M2959.5 1124.5C2999.89 1122.09 3080.8 1140.28 3133.98 1124.5 3187.16 1108.72 3250.14 1130.61 3315.73 1124.5 3381.32 1118.39 3435.27 1130.2 3497.48 1124.5 3559.69 1118.8 3626.83 1131.31 3686.5 1124.5 3687.77 1130.34 3685.26 1132.57 3686.5 1137.5 3643.8 1140.72 3575.82 1128.97 3504.75 1137.5 3433.68 1146.03 3419.88 1124.54 3337.54 1137.5 3255.2 1150.46 3208.22 1125.06 3170.33 1137.5 3132.44 1149.94 3049.82 1114.93 2959.5 1137.5 2958.52 1133.89 2960.06 1127.84 2959.5 1124.5Z" stroke="#FCDD9C" stroke-width="6.875" stroke-miterlimit="8" fill="none" fill-rule="evenodd"/><path d="M2993.5 1168.5C3056.6 1149.47 3092.22 1168.97 3155.02 1168.5 3217.82 1168.03 3266.27 1176.36 3303.08 1168.5 3339.89 1160.64 3410.09 1172.93 3484.79 1168.5 3559.49 1164.07 3589.08 1188.13 3666.5 1168.5 3667.82 1172.02 3666.24 1177.07 3666.5 1181.5 3594.75 1195.95 3580.92 1180.09 3511.71 1181.5 3442.5 1182.91 3403.19 1173.13 3356.92 1181.5 3310.64 1189.87 3222.05 1180.26 3175.21 1181.5 3128.37 1182.74 3031.03 1167.03 2993.5 1181.5 2993.47 1176.39 2994.59 1171.74 2993.5 1168.5Z" fill="#FCDD9C" fill-rule="evenodd"/><path d="M2993.5 1168.5C3027.31 1164.31 3118.47 1178.27 3155.02 1168.5 3191.57 1158.73 3265.46 1185.52 3323.27 1168.5 3381.08 1151.48 3447.31 1179.59 3491.52 1168.5 3535.73 1157.41 3597.46 1183.5 3666.5 1168.5 3667.77 1174.34 3665.26 1176.57 3666.5 1181.5 3584.78 1192.33 3537.19 1169.75 3498.25 1181.5 3459.31 1193.25 3379.41 1165.19 3343.46 1181.5 3307.51 1197.81 3255.92 1172.59 3188.67 1181.5 3121.42 1190.41 3062.49 1167.55 2993.5 1181.5 2992.52 1177.89 2994.06 1171.84 2993.5 1168.5Z" stroke="#FCDD9C" stroke-width="6.875" stroke-miterlimit="8" fill="none" fill-rule="evenodd"/><path d="M2102 1045C2102 607.038 2456.81 252 2894.5 252 3332.19 252 3687 607.038 3687 1045 3687 1482.96 3332.19 1838 2894.5 1838 2456.81 1838 2102 1482.96 2102 1045Z" stroke="#FCDD9C" stroke-width="27.5" stroke-miterlimit="8" fill="none" fill-rule="evenodd"/><path d="M3236.5 951C3236.5 904.332 3274.33 866.5 3321 866.5 3367.67 866.5 3405.5 904.332 3405.5 951 3405.5 997.668 3367.67 1035.5 3321 1035.5 3274.33 1035.5 3236.5 997.668 3236.5 951Z" stroke="#FCDD9C" stroke-width="19.4792" stroke-miterlimit="8" fill="#221B13" fill-rule="evenodd"/><path d="M3482.5 991.5C3482.5 948.422 3517.42 913.5 3560.5 913.5 3603.58 913.5 3638.5 948.422 3638.5 991.5 3638.5 1034.58 3603.58 1069.5 3560.5 1069.5 3517.42 1069.5 3482.5 1034.58 3482.5 991.5Z" stroke="#FCDD9C" stroke-width="19.4792" stroke-miterlimit="8" fill="#2E994A" fill-rule="evenodd"/><path d="M2391.5 951C2391.5 904.332 2429.33 866.5 2476 866.5 2522.67 866.5 2560.5 904.332 2560.5 951 2560.5 997.668 2522.67 1035.5 2476 1035.5 2429.33 1035.5 2391.5 997.668 2391.5 951Z" stroke="#FCDD9C" stroke-width="19.4792" stroke-miterlimit="8" fill="#1D1913" fill-rule="evenodd"/><path d="M2156.5 991.5C2156.5 948.422 2191.42 913.5 2234.5 913.5 2277.58 913.5 2312.5 948.422 2312.5 991.5 2312.5 1034.58 2277.58 1069.5 2234.5 1069.5 2191.42 1069.5 2156.5 1034.58 2156.5 991.5Z" stroke="#FCDD9C" stroke-width="19.4792" stroke-miterlimit="8" fill="#0F5734" fill-rule="evenodd"/><path d="M3117.5 952.5C3117.5 930.961 3134.96 913.5 3156.5 913.5 3178.04 913.5 3195.5 930.961 3195.5 952.5 3195.5 974.039 3178.04 991.5 3156.5 991.5 3134.96 991.5 3117.5 974.039 3117.5 952.5Z" stroke="#FCDD9C" stroke-width="19.4792" stroke-miterlimit="8" fill="#1E1D1B" fill-rule="evenodd"/><path d="M2598.5 957.5C2598.5 935.961 2615.96 918.5 2637.5 918.5 2659.04 918.5 2676.5 935.961 2676.5 957.5 2676.5 979.039 2659.04 996.5 2637.5 996.5 2615.96 996.5 2598.5 979.039 2598.5 957.5Z" stroke="#FCDD9C" stroke-width="19.4792" stroke-miterlimit="8" fill="#1E1D1B" fill-rule="evenodd"/><path d="M3035.5 1555C3035.5 1529.87 3055.87 1509.5 3081 1509.5 3106.13 1509.5 3126.5 1529.87 3126.5 1555 3126.5 1580.13 3106.13 1600.5 3081 1600.5 3055.87 1600.5 3035.5 1580.13 3035.5 1555Z" stroke="#FCDD9C" stroke-width="19.4792" stroke-miterlimit="8" fill="#1E1D1B" fill-rule="evenodd"/><path d="M2668.5 1555C2668.5 1529.87 2688.87 1509.5 2714 1509.5 2739.13 1509.5 2759.5 1529.87 2759.5 1555 2759.5 1580.13 2739.13 1600.5 2714 1600.5 2688.87 1600.5 2668.5 1580.13 2668.5 1555Z" stroke="#FCDD9C" stroke-width="19.4792" stroke-miterlimit="8" fill="#1E1D1B" fill-rule="evenodd"/><path d="M2533.93 1071.37C2529.23 1072.44 2524.6 1073.78 2520.05 1075.38 2505.97 1080.42 2499.24 1085.72 2498.58 1101.13L2498.5 1103.71 2498.5 1103.71 2498.5 1103.71 2498.5 1157.17C2498.44 1159.78 2500.26 1162.07 2502.83 1162.61 2505.67 1163.1 2508.37 1161.2 2508.86 1158.37 2508.91 1158.08 2508.94 1157.78 2508.94 1157.48L2508.94 1100.28C2508.94 1097.41 2511.27 1095.09 2514.15 1095.08L2514.15 1188.25C2514.06 1192.51 2517.3 1196.11 2521.55 1196.49 2525.87 1196.72 2529.56 1193.42 2529.79 1189.12 2529.8 1188.98 2529.8 1188.83 2529.8 1188.69L2529.8 1141.88 2569.8 1141.88C2572.64 1141.88 2575.43 1142.65 2577.87 1144.11L2593.78 1153.65C2598 1156.18 2602.82 1157.51 2607.74 1157.51L2620.84 1157.51 2621.1 1157.46 2621.1 1188.25C2621.01 1192.51 2624.24 1196.11 2628.5 1196.49 2632.82 1196.72 2636.5 1193.42 2636.74 1189.12 2636.75 1188.98 2636.75 1188.83 2636.75 1188.69L2636.75 1154.53 2647.18 1152.57 2647.18 1188.25C2647.09 1192.51 2650.33 1196.11 2654.59 1196.49 2658.9 1196.72 2662.59 1193.42 2662.82 1189.12 2662.83 1188.98 2662.83 1188.83 2662.83 1188.69L2662.83 1149.49 2665.96 1147.22C2672.47 1142.52 2677.69 1136.28 2681.17 1129.05L2688.96 1112.85C2694.03 1102.29 2705.43 1096.28 2717.04 1098.04L2728.47 1099.78C2730.48 1100.08 2732.5 1099.19 2733.61 1097.49L2737.27 1091.96C2738.76 1090.01 2738.65 1087.28 2737.01 1085.46L2712.96 1055.85 2706.88 1049.28C2704.94 1047.17 2702.19 1045.97 2699.32 1045.97L2690.05 1045.97C2691.09 1044.39 2692.78 1043.34 2694.67 1043.11 2698.94 1042.46 2704.55 1043.76 2714.38 1043.76 2721.83 1044.02 2729.19 1042.17 2735.63 1038.41L2737.58 1037.07C2738.39 1036.53 2738.71 1035.51 2738.36 1034.6 2738.02 1033.7 2737.11 1033.14 2736.14 1033.25L2727.49 1034.22C2724.13 1034.6 2720.74 1034.61 2717.38 1034.27L2691.98 1031.54C2681.45 1030.83 2674.57 1039.33 2674.57 1048.9L2674.57 1049.69 2673.5 1050.17C2672.02 1050.82 2670.36 1051.01 2668.77 1050.71L2653.18 1047.75C2647.01 1046.58 2640.67 1046.69 2634.54 1048.08Z" stroke="#FCDD9C" stroke-width="20.625" stroke-miterlimit="8" fill="#2A2811" fill-rule="evenodd"/><path d="M2479 860C2428.71 860 2388 900.711 2388 951 2388 1001.29 2428.71 1042 2479 1042 2529.29 1042 2570 1001.29 2570 951 2570 900.711 2529.29 860 2479 860ZM2479 1032.42C2434.22 1032.42 2397.58 995.782 2397.58 951 2397.58 906.219 2434.22 869.579 2479 869.579 2490.73 869.579 2501.75 871.974 2511.81 876.524L2504.14 882.75C2503.19 883.468 2502.23 883.947 2501.03 883.947L2496.48 883.947C2496 883.947 2495.28 883.947 2494.81 883.708 2494.81 883.708 2483.07 876.763 2476.37 876.763 2469.9 876.763 2459.36 880.834 2454.81 883.947 2447.87 888.498 2455.29 890.653 2456.97 891.132 2457.21 891.132 2457.45 891.132 2457.45 891.132L2464.15 891.132C2465.83 891.132 2467.27 890.413 2468.22 888.977L2470.86 884.905C2471.34 884.187 2472.06 883.947 2472.77 883.947L2476.61 883.947 2471.58 892.329C2470.38 894.484 2467.98 895.921 2465.35 895.921L2458.88 895.921C2457.93 895.921 2456.97 896.161 2456.25 896.64L2450.26 900.711 2445.47 900.711C2444.04 900.711 2443.08 901.668 2443.08 903.105L2443.08 905.5C2443.08 906.937 2442.12 907.895 2440.68 907.895L2438.53 907.895C2436.85 907.895 2435.42 908.613 2434.46 910.05L2431.58 914.6C2431.34 915.079 2431.11 915.558 2431.11 916.037L2431.11 917.474C2431.11 918.911 2432.06 919.868 2433.5 919.868L2442.12 919.868C2442.84 919.868 2443.32 919.629 2443.8 919.15L2451.22 911.726C2452.18 910.768 2453.38 910.289 2454.57 910.289L2455.53 910.289C2456.73 910.289 2457.69 911.008 2457.93 912.205L2459.36 918.192C2459.6 919.15 2460.56 920.108 2461.76 920.108L2462.24 920.108C2463.67 920.108 2464.63 919.15 2464.63 917.713L2464.63 911.487C2464.63 910.768 2464.87 910.289 2465.35 909.811L2467.03 907.895 2468.94 913.403C2469.18 914.361 2470.14 915.079 2471.1 915.079L2473.25 915.079C2473.97 915.079 2474.45 914.84 2474.93 914.361L2475.89 913.403C2476.37 912.924 2476.84 912.684 2477.56 912.684L2479 912.684C2480.44 912.684 2481.39 913.642 2481.39 915.079L2481.39 917.474C2481.39 918.911 2482.35 919.868 2483.79 919.868L2492.41 919.868C2494.09 919.868 2495.28 921.545 2494.57 922.982L2493.85 925.137C2493.37 926.334 2492.41 927.053 2491.21 926.813L2479.72 924.897C2479.24 924.897 2478.52 924.897 2478.04 924.897L2468.22 926.813C2467.27 927.053 2466.55 926.813 2465.59 926.574 2462.48 925.376 2453.86 922.263 2450.26 922.263 2421.77 922.263 2421.53 941.421 2421.53 948.605 2421.53 958.184 2427.03 965.368 2435.89 965.368 2446.43 965.368 2459.84 964.889 2459.84 984.526L2459.84 999.374C2459.84 1002.25 2460.8 1004.88 2462.72 1007.04L2469.66 1015.42C2471.1 1017.09 2473.01 1018.05 2475.17 1018.05L2480.92 1018.05C2482.83 1018.05 2484.75 1017.33 2485.94 1015.9L2491.69 1010.15C2492.89 1008.95 2493.61 1007.76 2494.33 1006.32L2499.12 996.5C2499.83 994.824 2500.31 992.908 2500.31 991.232L2500.31 980.216C2500.31 978.3 2501.03 976.384 2502.47 975.187L2515.16 962.495C2516.12 961.537 2516.12 959.621 2514.92 958.903 2514.92 958.903 2500.55 950.761 2492.65 935.434 2491.93 933.758 2492.89 931.842 2494.81 931.842L2495.76 931.842 2509.41 949.563C2511.09 951.719 2514.2 951.958 2516.36 950.282L2524.26 943.576C2525.46 942.619 2525.46 940.463 2524.02 939.745L2516.84 935.434C2515.88 934.716 2515.4 933.519 2515.88 932.321L2516.12 931.842C2516.84 930.645 2518.27 930.166 2519.47 930.884L2528.09 936.153C2528.81 936.632 2529.77 936.871 2530.49 936.871L2533.12 936.871C2535.04 936.871 2536.71 938.068 2537.43 939.745L2544.38 955.55C2545.09 957.226 2546.77 958.424 2548.69 958.424L2548.69 958.424C2550.84 958.424 2552.76 956.508 2552.76 954.353L2552.76 947.647C2552.76 946.929 2553 946.211 2553.72 945.732L2559.22 941.421C2559.7 944.534 2559.94 947.887 2559.94 951.24 2560.42 995.782 2523.78 1032.42 2479 1032.42Z" fill="#FCDD9C" fill-rule="evenodd"/><path d="M2435.83 900.679 2435.83 903 2438.22 903C2439.65 903 2440.61 902.071 2440.61 900.679L2440.61 898.357 2443 898.357 2443 894.643C2443 893.947 2442.76 893.482 2442.28 893.018L2439.89 890.696C2438.93 889.768 2437.5 889.768 2436.54 890.696L2432.72 894.411C2431.76 895.339 2431.76 896.732 2432.72 897.661L2435.83 900.679Z" fill="#FCDD9C" fill-rule="evenodd"/><text fill="#FCDD9C" font-family="Comic Sans MS,Comic Sans MS_MSFontService,sans-serif" font-weight="700" font-size="128" transform="matrix(1 0 0 1 3520.09 1046)">V</text><path d="M2195.5 991.5C2195.5 969.961 2212.96 952.5 2234.5 952.5 2256.04 952.5 2273.5 969.961 2273.5 991.5 2273.5 1013.04 2256.04 1030.5 2234.5 1030.5 2212.96 1030.5 2195.5 1013.04 2195.5 991.5Z" stroke="#FDC672" stroke-width="19.4792" stroke-miterlimit="8" fill="#0F5734" fill-rule="evenodd"/><path d="M2214 990.5C2214 979.731 2222.73 971 2233.5 971 2244.27 971 2253 979.731 2253 990.5 2253 1001.27 2244.27 1010 2233.5 1010 2222.73 1010 2214 1001.27 2214 990.5Z" fill="#CFBD76" fill-rule="evenodd"/><path d="M3312.62 1008 3312.06 1008C3309.62 1007.79 3307.56 1005.67 3307 1002.92L3294.06 925.527 3286 953.018C3285.25 955.556 3283.19 957.247 3280.75 957.247L3247 957.247 3247 944.559 3276.62 944.559 3290.31 898.247C3291.06 895.498 3293.5 893.807 3295.94 894.018 3298.38 894.229 3300.62 896.344 3301 899.093L3314.12 978.394 3333.25 921.297C3334.19 918.76 3336.25 917.068 3338.69 917.28 3341.12 917.491 3343.19 919.183 3343.94 921.932L3354.62 961.477 3366.62 946.674C3367.75 945.405 3369.25 944.559 3370.75 944.559L3397 944.559 3397 957.247 3373.19 957.247 3356.12 978.394C3354.81 980.086 3352.75 980.72 3350.69 980.297 3348.62 979.875 3347.12 978.183 3346.56 975.857L3338.12 943.29 3317.88 1003.98C3317.12 1006.31 3314.88 1008 3312.62 1008Z" fill="#FCDD9C" fill-rule="evenodd"/><path d="M2783 1728C2783 1670.56 2829.34 1624 2886.5 1624 2943.66 1624 2990 1670.56 2990 1728 2990 1785.44 2943.66 1832 2886.5 1832 2829.34 1832 2783 1785.44 2783 1728Z" fill="#FCDD9C" fill-rule="evenodd"/><path d="M2206 1352C2206 1344.82 2211.82 1339 2219 1339 2226.18 1339 2232 1344.82 2232 1352 2232 1359.18 2226.18 1365 2219 1365 2211.82 1365 2206 1359.18 2206 1352Z" fill="#FCDD9C" fill-rule="evenodd"/><path d="M2206 1290C2206 1282.82 2211.82 1277 2219 1277 2226.18 1277 2232 1282.82 2232 1290 2232 1297.18 2226.18 1303 2219 1303 2211.82 1303 2206 1297.18 2206 1290Z" fill="#FCDD9C" fill-rule="evenodd"/><path d="M2247 1352C2247 1344.82 2252.82 1339 2260 1339 2267.18 1339 2273 1344.82 2273 1352 2273 1359.18 2267.18 1365 2260 1365 2252.82 1365 2247 1359.18 2247 1352Z" fill="#FCDD9C" fill-rule="evenodd"/><path d="M2247 1290C2247 1282.82 2252.82 1277 2260 1277 2267.18 1277 2273 1282.82 2273 1290 2273 1297.18 2267.18 1303 2260 1303 2252.82 1303 2247 1297.18 2247 1290Z" fill="#FCDD9C" fill-rule="evenodd"/><path d="M2288 1352C2288 1344.82 2293.82 1339 2301 1339 2308.18 1339 2314 1344.82 2314 1352 2314 1359.18 2308.18 1365 2301 1365 2293.82 1365 2288 1359.18 2288 1352Z" fill="#FCDD9C" fill-rule="evenodd"/><path d="M2288 1290C2288 1282.82 2293.82 1277 2301 1277 2308.18 1277 2314 1282.82 2314 1290 2314 1297.18 2308.18 1303 2301 1303 2293.82 1303 2288 1297.18 2288 1290Z" fill="#FCDD9C" fill-rule="evenodd"/><path d="M2329 1352C2329 1344.82 2334.82 1339 2342 1339 2349.18 1339 2355 1344.82 2355 1352 2355 1359.18 2349.18 1365 2342 1365 2334.82 1365 2329 1359.18 2329 1352Z" fill="#FCDD9C" fill-rule="evenodd"/><path d="M2329 1290C2329 1282.82 2334.82 1277 2342 1277 2349.18 1277 2355 1282.82 2355 1290 2355 1297.18 2349.18 1303 2342 1303 2334.82 1303 2329 1297.18 2329 1290Z" fill="#FCDD9C" fill-rule="evenodd"/><path d="M2370 1352C2370 1344.82 2375.82 1339 2383 1339 2390.18 1339 2396 1344.82 2396 1352 2396 1359.18 2390.18 1365 2383 1365 2375.82 1365 2370 1359.18 2370 1352Z" fill="#FCDD9C" fill-rule="evenodd"/><path d="M2370 1290C2370 1282.82 2375.82 1277 2383 1277 2390.18 1277 2396 1282.82 2396 1290 2396 1297.18 2390.18 1303 2383 1303 2375.82 1303 2370 1297.18 2370 1290Z" fill="#FCDD9C" fill-rule="evenodd"/><path d="M2412 1352C2412 1344.82 2417.82 1339 2425 1339 2432.18 1339 2438 1344.82 2438 1352 2438 1359.18 2432.18 1365 2425 1365 2417.82 1365 2412 1359.18 2412 1352Z" fill="#FCDD9C" fill-rule="evenodd"/><path d="M2412 1290C2412 1282.82 2417.82 1277 2425 1277 2432.18 1277 2438 1282.82 2438 1290 2438 1297.18 2432.18 1303 2425 1303 2417.82 1303 2412 1297.18 2412 1290Z" fill="#FCDD9C" fill-rule="evenodd"/><path d="M2453 1352C2453 1344.82 2458.82 1339 2466 1339 2473.18 1339 2479 1344.82 2479 1352 2479 1359.18 2473.18 1365 2466 1365 2458.82 1365 2453 1359.18 2453 1352Z" fill="#FCDD9C" fill-rule="evenodd"/><path d="M2453 1290C2453 1282.82 2458.82 1277 2466 1277 2473.18 1277 2479 1282.82 2479 1290 2479 1297.18 2473.18 1303 2466 1303 2458.82 1303 2453 1297.18 2453 1290Z" fill="#FCDD9C" fill-rule="evenodd"/><path d="M2494 1352C2494 1344.82 2499.82 1339 2507 1339 2514.18 1339 2520 1344.82 2520 1352 2520 1359.18 2514.18 1365 2507 1365 2499.82 1365 2494 1359.18 2494 1352Z" fill="#FCDD9C" fill-rule="evenodd"/><path d="M2494 1290C2494 1282.82 2499.82 1277 2507 1277 2514.18 1277 2520 1282.82 2520 1290 2520 1297.18 2514.18 1303 2507 1303 2499.82 1303 2494 1297.18 2494 1290Z" fill="#FCDD9C" fill-rule="evenodd"/><path d="M2535 1352C2535 1344.82 2540.82 1339 2548 1339 2555.18 1339 2561 1344.82 2561 1352 2561 1359.18 2555.18 1365 2548 1365 2540.82 1365 2535 1359.18 2535 1352Z" fill="#FCDD9C" fill-rule="evenodd"/><path d="M2535 1290C2535 1282.82 2540.82 1277 2548 1277 2555.18 1277 2561 1282.82 2561 1290 2561 1297.18 2555.18 1303 2548 1303 2540.82 1303 2535 1297.18 2535 1290Z" fill="#FCDD9C" fill-rule="evenodd"/><path d="M3202 1352C3202 1344.82 3207.82 1339 3215 1339 3222.18 1339 3228 1344.82 3228 1352 3228 1359.18 3222.18 1365 3215 1365 3207.82 1365 3202 1359.18 3202 1352Z" fill="#FCDD9C" fill-rule="evenodd"/><path d="M3202 1290C3202 1282.82 3207.82 1277 3215 1277 3222.18 1277 3228 1282.82 3228 1290 3228 1297.18 3222.18 1303 3215 1303 3207.82 1303 3202 1297.18 3202 1290Z" fill="#FCDD9C" fill-rule="evenodd"/><path d="M3243 1352C3243 1344.82 3248.82 1339 3256 1339 3263.18 1339 3269 1344.82 3269 1352 3269 1359.18 3263.18 1365 3256 1365 3248.82 1365 3243 1359.18 3243 1352Z" fill="#FCDD9C" fill-rule="evenodd"/><path d="M3243 1290C3243 1282.82 3248.82 1277 3256 1277 3263.18 1277 3269 1282.82 3269 1290 3269 1297.18 3263.18 1303 3256 1303 3248.82 1303 3243 1297.18 3243 1290Z" fill="#FCDD9C" fill-rule="evenodd"/><path d="M3284 1352C3284 1344.82 3289.82 1339 3297 1339 3304.18 1339 3310 1344.82 3310 1352 3310 1359.18 3304.18 1365 3297 1365 3289.82 1365 3284 1359.18 3284 1352Z" fill="#FCDD9C" fill-rule="evenodd"/><path d="M3284 1290C3284 1282.82 3289.82 1277 3297 1277 3304.18 1277 3310 1282.82 3310 1290 3310 1297.18 3304.18 1303 3297 1303 3289.82 1303 3284 1297.18 3284 1290Z" fill="#FCDD9C" fill-rule="evenodd"/><path d="M3325 1352C3325 1344.82 3330.82 1339 3338 1339 3345.18 1339 3351 1344.82 3351 1352 3351 1359.18 3345.18 1365 3338 1365 3330.82 1365 3325 1359.18 3325 1352Z" fill="#FCDD9C" fill-rule="evenodd"/><path d="M3325 1290C3325 1282.82 3330.82 1277 3338 1277 3345.18 1277 3351 1282.82 3351 1290 3351 1297.18 3345.18 1303 3338 1303 3330.82 1303 3325 1297.18 3325 1290Z" fill="#FCDD9C" fill-rule="evenodd"/><path d="M3367 1352C3367 1344.82 3372.82 1339 3380 1339 3387.18 1339 3393 1344.82 3393 1352 3393 1359.18 3387.18 1365 3380 1365 3372.82 1365 3367 1359.18 3367 1352Z" fill="#FCDD9C" fill-rule="evenodd"/><path d="M3367 1290C3367 1282.82 3372.82 1277 3380 1277 3387.18 1277 3393 1282.82 3393 1290 3393 1297.18 3387.18 1303 3380 1303 3372.82 1303 3367 1297.18 3367 1290Z" fill="#FCDD9C" fill-rule="evenodd"/><path d="M3408 1352C3408 1344.82 3413.82 1339 3421 1339 3428.18 1339 3434 1344.82 3434 1352 3434 1359.18 3428.18 1365 3421 1365 3413.82 1365 3408 1359.18 3408 1352Z" fill="#FCDD9C" fill-rule="evenodd"/><path d="M3408 1290C3408 1282.82 3413.82 1277 3421 1277 3428.18 1277 3434 1282.82 3434 1290 3434 1297.18 3428.18 1303 3421 1303 3413.82 1303 3408 1297.18 3408 1290Z" fill="#FCDD9C" fill-rule="evenodd"/><path d="M3449 1352C3449 1344.82 3454.82 1339 3462 1339 3469.18 1339 3475 1344.82 3475 1352 3475 1359.18 3469.18 1365 3462 1365 3454.82 1365 3449 1359.18 3449 1352Z" fill="#FCDD9C" fill-rule="evenodd"/><path d="M3449 1290C3449 1282.82 3454.82 1277 3462 1277 3469.18 1277 3475 1282.82 3475 1290 3475 1297.18 3469.18 1303 3462 1303 3454.82 1303 3449 1297.18 3449 1290Z" fill="#FCDD9C" fill-rule="evenodd"/><path d="M3490 1352C3490 1344.82 3495.82 1339 3503 1339 3510.18 1339 3516 1344.82 3516 1352 3516 1359.18 3510.18 1365 3503 1365 3495.82 1365 3490 1359.18 3490 1352Z" fill="#FCDD9C" fill-rule="evenodd"/><path d="M3490 1290C3490 1282.82 3495.82 1277 3503 1277 3510.18 1277 3516 1282.82 3516 1290 3516 1297.18 3510.18 1303 3503 1303 3495.82 1303 3490 1297.18 3490 1290Z" fill="#FCDD9C" fill-rule="evenodd"/><path d="M3531 1352C3531 1344.82 3536.82 1339 3544 1339 3551.18 1339 3557 1344.82 3557 1352 3557 1359.18 3551.18 1365 3544 1365 3536.82 1365 3531 1359.18 3531 1352Z" fill="#FCDD9C" fill-rule="evenodd"/><path d="M3531 1290C3531 1282.82 3536.82 1277 3544 1277 3551.18 1277 3557 1282.82 3557 1290 3557 1297.18 3551.18 1303 3544 1303 3536.82 1303 3531 1297.18 3531 1290Z" fill="#FCDD9C" fill-rule="evenodd"/><path d="M3573 1290C3573 1282.82 3578.82 1277 3586 1277 3593.18 1277 3599 1282.82 3599 1290 3599 1297.18 3593.18 1303 3586 1303 3578.82 1303 3573 1297.18 3573 1290Z" fill="#FCDD9C" fill-rule="evenodd"/><path d="M3147 1290C3147 1282.82 3152.82 1277 3160 1277 3167.18 1277 3173 1282.82 3173 1290 3173 1297.18 3167.18 1303 3160 1303 3152.82 1303 3147 1297.18 3147 1290Z" fill="#FCDD9C" fill-rule="evenodd"/><path d="M2594 1290C2594 1282.82 2599.82 1277 2607 1277 2614.18 1277 2620 1282.82 2620 1290 2620 1297.18 2614.18 1303 2607 1303 2599.82 1303 2594 1297.18 2594 1290Z" fill="#FCDD9C" fill-rule="evenodd"/><path d="M2260 1470C2260 1462.82 2265.82 1457 2273 1457 2280.18 1457 2286 1462.82 2286 1470 2286 1477.18 2280.18 1483 2273 1483 2265.82 1483 2260 1477.18 2260 1470Z" fill="#FCDD9C" fill-rule="evenodd"/><path d="M2345 1573C2345 1565.82 2350.82 1560 2358 1560 2365.18 1560 2371 1565.82 2371 1573 2371 1580.18 2365.18 1586 2358 1586 2350.82 1586 2345 1580.18 2345 1573Z" fill="#FCDD9C" fill-rule="evenodd"/><path d="M2494 1695C2494 1687.82 2499.82 1682 2507 1682 2514.18 1682 2520 1687.82 2520 1695 2520 1702.18 2514.18 1708 2507 1708 2499.82 1708 2494 1702.18 2494 1695Z" fill="#FCDD9C" fill-rule="evenodd"/><path d="M3492 1470C3492 1462.82 3497.82 1457 3505 1457 3512.18 1457 3518 1462.82 3518 1470 3518 1477.18 3512.18 1483 3505 1483 3497.82 1483 3492 1477.18 3492 1470Z" fill="#FCDD9C" fill-rule="evenodd"/><path d="M3406 1574C3406 1566.82 3411.82 1561 3419 1561 3426.18 1561 3432 1566.82 3432 1574 3432 1581.18 3426.18 1587 3419 1587 3411.82 1587 3406 1581.18 3406 1574Z" fill="#FCDD9C" fill-rule="evenodd"/><path d="M3268 1684C3268 1676.82 3273.82 1671 3281 1671 3288.18 1671 3294 1676.82 3294 1684 3294 1691.18 3288.18 1697 3281 1697 3273.82 1697 3268 1691.18 3268 1684Z" fill="#FCDD9C" fill-rule="evenodd"/><path d="M3040 1061C3040 1054.93 3044.93 1050 3051 1050 3057.08 1050 3062 1054.93 3062 1061 3062 1067.08 3057.08 1072 3051 1072 3044.93 1072 3040 1067.08 3040 1061Z" fill="#D0F3E9" fill-rule="evenodd"/><path d="M2991 1061C2991 1054.93 2996.15 1050 3002.5 1050 3008.85 1050 3014 1054.93 3014 1061 3014 1067.08 3008.85 1072 3002.5 1072 2996.15 1072 2991 1067.08 2991 1061Z" fill="#D0F3E9" fill-rule="evenodd"/><path d="M3093 1044C3093 1037.37 3098.6 1032 3105.5 1032 3112.4 1032 3118 1037.37 3118 1044 3118 1050.63 3112.4 1056 3105.5 1056 3098.6 1056 3093 1050.63 3093 1044Z" fill="#D0F3E9" fill-rule="evenodd"/><path d="M3040 968.5C3040 963.253 3044.48 959 3050 959 3055.52 959 3060 963.253 3060 968.5 3060 973.747 3055.52 978 3050 978 3044.48 978 3040 973.747 3040 968.5Z" fill="#D0F3E9" fill-rule="evenodd"/><path d="M3000 1014C3000 1008.48 3004.48 1004 3010 1004 3015.52 1004 3020 1008.48 3020 1014 3020 1019.52 3015.52 1024 3010 1024 3004.48 1024 3000 1019.52 3000 1014Z" fill="#D0F3E9" fill-rule="evenodd"/><path d="M3054 1008.5C3054 1003.25 3058.48 999 3064 999 3069.52 999 3074 1003.25 3074 1008.5 3074 1013.75 3069.52 1018 3064 1018 3058.48 1018 3054 1013.75 3054 1008.5Z" fill="#D0F3E9" fill-rule="evenodd"/><path d="M3140 1050C3140 1044.48 3144.48 1040 3150 1040 3155.52 1040 3160 1044.48 3160 1050 3160 1055.52 3155.52 1060 3150 1060 3144.48 1060 3140 1055.52 3140 1050Z" fill="#D0F3E9" fill-rule="evenodd"/><path d="M3190 1050C3190 1044.48 3194.48 1040 3200 1040 3205.52 1040 3210 1044.48 3210 1050 3210 1055.52 3205.52 1060 3200 1060 3194.48 1060 3190 1055.52 3190 1050Z" fill="#D0F3E9" fill-rule="evenodd"/><path d="M3405 1050.5C3405 1045.25 3409.48 1041 3415 1041 3420.52 1041 3425 1045.25 3425 1050.5 3425 1055.75 3420.52 1060 3415 1060 3409.48 1060 3405 1055.75 3405 1050.5Z" fill="#D0F3E9" fill-rule="evenodd"/><path d="M2741 942C2741 936.477 2745.48 932 2751 932 2756.52 932 2761 936.477 2761 942 2761 947.523 2756.52 952 2751 952 2745.48 952 2741 947.523 2741 942Z" fill="#D0F3E9" fill-rule="evenodd"/><path d="M2772 979.5C2772 974.253 2776.25 970 2781.5 970 2786.75 970 2791 974.253 2791 979.5 2791 984.747 2786.75 989 2781.5 989 2776.25 989 2772 984.747 2772 979.5Z" fill="#D0F3E9" fill-rule="evenodd"/><path d="M2804 1017.5C2804 1012.25 2808.48 1008 2814 1008 2819.52 1008 2824 1012.25 2824 1017.5 2824 1022.75 2819.52 1027 2814 1027 2808.48 1027 2804 1022.75 2804 1017.5Z" fill="#D0F3E9" fill-rule="evenodd"/><path d="M2715 989C2715 983.477 2719.48 979 2725 979 2730.52 979 2735 983.477 2735 989 2735 994.523 2730.52 999 2725 999 2719.48 999 2715 994.523 2715 989Z" fill="#D0F3E9" fill-rule="evenodd"/><path d="M2750 1012.5C2750 1007.81 2753.81 1004 2758.5 1004 2763.19 1004 2767 1007.81 2767 1012.5 2767 1017.19 2763.19 1021 2758.5 1021 2753.81 1021 2750 1017.19 2750 1012.5Z" fill="#D0F3E9" fill-rule="evenodd"/><path d="M2777 1032.5C2777 1027.81 2780.81 1024 2785.5 1024 2790.19 1024 2794 1027.81 2794 1032.5 2794 1037.19 2790.19 1041 2785.5 1041 2780.81 1041 2777 1037.19 2777 1032.5Z" fill="#D0F3E9" fill-rule="evenodd"/><path d="M2826.82 1682 2805.18 1682C2803.98 1682 2802.87 1682.63 2802.27 1683.63L2791.45 1701.87C2790.85 1702.88 2790.85 1704.13 2791.45 1705.13L2802.27 1723.37C2802.87 1724.38 2803.98 1725 2805.18 1725L2826.82 1725C2828.02 1725 2829.13 1724.37 2829.73 1723.37L2840.55 1705.13C2841.15 1704.13 2841.15 1702.88 2840.55 1701.87L2829.73 1683.63C2829.13 1682.63 2828.02 1682 2826.82 1682Z" stroke="#FCDD9C" stroke-width="6.11099" stroke-miterlimit="8" fill="#0F0800" fill-rule="evenodd"/><path d="M2868.82 1707 2847.18 1707C2845.98 1707 2844.87 1707.64 2844.27 1708.67L2833.45 1727.33C2832.85 1728.36 2832.85 1729.64 2833.45 1730.67L2844.27 1749.33C2844.87 1750.36 2845.98 1751 2847.18 1751L2868.82 1751C2870.02 1751 2871.13 1750.36 2871.73 1749.33L2882.55 1730.67C2883.15 1729.64 2883.15 1728.36 2882.55 1727.33L2871.73 1708.67C2871.13 1707.64 2870.02 1707 2868.82 1707Z" fill="#0F0800" fill-rule="evenodd"/><path d="M2871.73 1757.67C2871.13 1756.64 2870.02 1756 2868.82 1756L2847.18 1756C2845.98 1756 2844.87 1756.64 2844.27 1757.67L2833.45 1776.33C2832.85 1777.36 2832.85 1778.64 2833.45 1779.67L2844.27 1798.33C2844.87 1799.36 2845.98 1800 2847.18 1800L2868.82 1800C2870.02 1800 2871.13 1799.36 2871.73 1798.33L2882.55 1779.67C2883.15 1778.64 2883.15 1777.36 2882.55 1776.33L2871.73 1757.67Z" stroke="#FCDD9C" stroke-width="6.11099" stroke-miterlimit="8" fill="#0F0800" fill-rule="evenodd"/><path d="M2838.55 1751.87 2827.73 1733.63C2827.13 1732.63 2826.02 1732 2824.82 1732L2803.18 1732C2801.98 1732 2800.87 1732.63 2800.27 1733.63L2789.45 1751.87C2788.85 1752.87 2788.85 1754.13 2789.45 1755.13L2800.27 1773.37C2800.87 1774.37 2801.98 1775 2803.18 1775L2824.82 1775C2826.02 1775 2827.13 1774.37 2827.73 1773.37L2838.55 1755.13C2839.15 1754.13 2839.15 1752.87 2838.55 1751.87Z" stroke="#FCDD9C" stroke-width="6.11099" stroke-miterlimit="8" fill="#0F0800" fill-rule="evenodd"/><path d="M2868.82 1657 2847.18 1657C2845.98 1657 2844.87 1657.64 2844.27 1658.67L2833.45 1677.33C2832.85 1678.36 2832.85 1679.64 2833.45 1680.67L2844.27 1699.33C2844.87 1700.36 2845.98 1701 2847.18 1701L2868.82 1701C2870.02 1701 2871.13 1700.36 2871.73 1699.33L2882.55 1680.67C2883.15 1679.64 2883.15 1678.36 2882.55 1677.33L2871.73 1658.67C2871.13 1657.64 2870.02 1657 2868.82 1657Z" stroke="#FCDD9C" stroke-width="6.11099" stroke-miterlimit="8" fill="#0F0800" fill-rule="evenodd"/><path d="M2890.18 1726 2911.82 1726C2913.02 1726 2914.13 1725.38 2914.73 1724.37L2925.55 1706.13C2926.15 1705.13 2926.15 1703.87 2925.55 1702.87L2914.73 1684.63C2914.13 1683.63 2913.02 1683 2911.82 1683L2890.18 1683C2888.98 1683 2887.87 1683.63 2887.27 1684.63L2876.45 1702.87C2875.85 1703.88 2875.85 1705.13 2876.45 1706.13L2887.27 1724.37C2887.87 1725.38 2888.98 1726 2890.18 1726Z" stroke="#FCDD9C" stroke-width="6.11099" stroke-miterlimit="8" fill="#0F0800" fill-rule="evenodd"/><path d="M2956.73 1709.67C2956.13 1708.64 2955.02 1708 2953.82 1708L2932.18 1708C2930.98 1708 2929.87 1708.64 2929.27 1709.67L2918.45 1728.33C2917.85 1729.36 2917.85 1730.64 2918.45 1731.67L2929.27 1750.33C2929.87 1751.36 2930.98 1752 2932.18 1752L2953.82 1752C2955.02 1752 2956.13 1751.36 2956.73 1750.33L2967.55 1731.67C2968.15 1730.64 2968.15 1729.36 2967.55 1728.33L2956.73 1709.67Z" stroke="#FCDD9C" stroke-width="6.11099" stroke-miterlimit="8" fill="#0F0800" fill-rule="evenodd"/><path d="M2956.73 1759.67C2956.13 1758.64 2955.02 1758 2953.82 1758L2932.18 1758C2930.98 1758 2929.87 1758.64 2929.27 1759.67L2918.45 1778.33C2917.85 1779.36 2917.85 1780.64 2918.45 1781.67L2929.27 1800.33C2929.87 1801.36 2930.98 1802 2932.18 1802L2953.82 1802C2955.02 1802 2956.13 1801.36 2956.73 1800.33L2967.55 1781.67C2968.15 1780.64 2968.15 1779.36 2967.55 1778.33L2956.73 1759.67Z" stroke="#FCDD9C" stroke-width="6.11099" stroke-miterlimit="8" fill="#0F0800" fill-rule="evenodd"/><path d="M2925.55 1751.87 2914.73 1733.63C2914.13 1732.63 2913.02 1732 2911.82 1732L2890.18 1732C2888.98 1732 2887.87 1732.63 2887.27 1733.63L2876.45 1751.87C2875.85 1752.87 2875.85 1754.13 2876.45 1755.13L2887.27 1773.37C2887.87 1774.37 2888.98 1775 2890.18 1775L2911.82 1775C2913.02 1775 2914.13 1774.37 2914.73 1773.37L2925.55 1755.13C2926.15 1754.13 2926.15 1752.87 2925.55 1751.87Z" stroke="#FCDD9C" stroke-width="6.11099" stroke-miterlimit="8" fill="#0F0800" fill-rule="evenodd"/><path d="M2925.55 1654.33 2914.73 1635.67C2914.13 1634.64 2913.02 1634 2911.82 1634L2890.18 1634C2888.98 1634 2887.87 1634.64 2887.27 1635.67L2876.45 1654.33C2875.85 1655.36 2875.85 1656.64 2876.45 1657.67L2887.27 1676.33C2887.87 1677.36 2888.98 1678 2890.18 1678L2911.82 1678C2913.02 1678 2914.13 1677.36 2914.73 1676.33L2925.55 1657.67C2926.15 1656.64 2926.15 1655.36 2925.55 1654.33Z" stroke="#FCDD9C" stroke-width="6.11099" stroke-miterlimit="8" fill="#0F0800" fill-rule="evenodd"/><path d="M2956.73 1659.67C2956.13 1658.64 2955.02 1658 2953.82 1658L2932.18 1658C2930.98 1658 2929.87 1658.64 2929.27 1659.67L2918.45 1678.33C2917.85 1679.36 2917.85 1680.64 2918.45 1681.67L2929.27 1700.33C2929.87 1701.36 2930.98 1702 2932.18 1702L2953.82 1702C2955.02 1702 2956.13 1701.36 2956.73 1700.33L2967.55 1681.67C2968.15 1680.64 2968.15 1679.36 2967.55 1678.33L2956.73 1659.67Z" stroke="#FCDD9C" stroke-width="6.11099" stroke-miterlimit="8" fill="#0F0800" fill-rule="evenodd"/><path d="M2915.95 1781.63C2915.37 1780.63 2914.28 1780 2913.11 1780L2891.89 1780C2890.72 1780 2889.63 1780.63 2889.04 1781.63L2878.44 1799.87C2877.85 1800.87 2877.85 1802.13 2878.44 1803.13L2889.04 1821.37C2889.63 1822.38 2890.72 1823 2891.89 1823L2913.11 1823C2914.28 1823 2915.37 1822.38 2915.95 1821.37L2926.56 1803.13C2927.15 1802.13 2927.15 1800.87 2926.56 1799.87L2915.95 1781.63Z" stroke="#FCDD9C" stroke-width="6.11099" stroke-miterlimit="8" fill="#0F0800" fill-rule="evenodd"/><path d="M2263.42 1091.8C2261.52 1092.2 2258.05 1093.28 2257.6 1093.61 2257.39 1093.77 2255.27 1094.01 2252.88 1094.14 2246.21 1094.5 2243.03 1095.49 2237.99 1098.78 2235.78 1100.22 2235.26 1100.38 2231.66 1100.72 2229.64 1100.91 2226.71 1101.8 2225.5 1102.59 2224.91 1102.98 2223.85 1103.06 2219.62 1103.07 2214.04 1103.07 2213.27 1103.22 2209.46 1105 2204.82 1107.17 2196.36 1115.24 2194.18 1119.59 2191.79 1124.34 2195.91 1128.18 2203.06 1127.85 2204.87 1127.77 2205.17 1127.84 2206.38 1128.66 2207.96 1129.74 2210.19 1130.34 2211.67 1130.09 2212.34 1129.98 2213.18 1130.08 2213.9 1130.36 2214.53 1130.6 2216.04 1130.94 2217.26 1131.1 2218.47 1131.27 2220.45 1131.8 2221.67 1132.28 2224.11 1133.25 2228.26 1133.52 2230.5 1132.85 2231.61 1132.51 2236.34 1133.41 2237.09 1134.1 2237.24 1134.24 2237.57 1134.35 2237.82 1134.36 2239.33 1134.37 2244.9 1137.85 2248.2 1140.84L2250.55 1142.97 2250.39 1144.46C2250.3 1145.29 2250.08 1146.88 2249.9 1148.01 2249.14 1152.63 2248.95 1155.56 2248.71 1165.94 2248.58 1171.92 2248.32 1178.13 2248.14 1179.75 2247.04 1189.65 2246.79 1196.44 2247.24 1204.09 2247.77 1213.02 2248.46 1214.7 2252.37 1216.59L2254.27 1217.5 2263.39 1217.5C2274.75 1217.5 2276.32 1216.98 2278.47 1212.54 2280.03 1209.32 2280.14 1192.98 2278.68 1180.04 2278.53 1178.75 2278.29 1172.66 2278.14 1166.52 2277.89 1155.86 2277.7 1153.12 2276.93 1148.16 2276.74 1146.95 2276.52 1145.29 2276.45 1144.47L2276.31 1142.99 2278.37 1141.05C2283.65 1136.07 2292.95 1131.83 2296.34 1132.84 2299.03 1133.65 2304.83 1132.99 2306.5 1131.69 2306.66 1131.57 2307.92 1131.31 2309.29 1131.12 2310.67 1130.94 2312.28 1130.6 2312.88 1130.37 2313.96 1129.96 2313.97 1129.97 2315.23 1131.18 2319.67 1135.44 2328.7 1134.45 2332.75 1129.24 2334.22 1127.35 2333.59 1126.15 2330.36 1124.67 2326.98 1123.13 2322.82 1119.83 2322.82 1118.69 2322.82 1117.47 2319.37 1113.23 2317.23 1111.82 2316.02 1111.02 2315.25 1110.68 2311.35 1109.24 2309.78 1108.66 2308.29 1107.31 2307.81 1106.03 2306.52 1102.66 2305.5 1101.7 2301.79 1100.42 2298.77 1099.37 2293.22 1098.54 2289 1098.5 2286.61 1098.48 2286.13 1098.3 2283.23 1096.29 2280.15 1094.16 2276.92 1092.81 2272.46 1091.78 2270.8 1091.4 2265.3 1091.41 2263.42 1091.8M2251.66 1112.77C2251.66 1113.03 2251.37 1113.2 2250.92 1113.2 2250.07 1113.2 2249.96 1112.77 2250.7 1112.35 2251.29 1112.02 2251.66 1112.18 2251.66 1112.77M2255.91 1113.2C2256.48 1113.52 2257.45 1114.06 2258.05 1114.4 2258.66 1114.75 2259.2 1115.06 2259.24 1115.1 2259.29 1115.15 2258.91 1115.6 2258.39 1116.12L2257.46 1117.06 2256.37 1115.99C2253.86 1113.55 2253.59 1111.88 2255.91 1113.2M2277.82 1114.45C2277.81 1114.65 2277.62 1115.14 2277.39 1115.55 2276.82 1116.54 2276.84 1118.25 2277.43 1119.28 2278.38 1120.94 2276 1123.76 2271.99 1125.72 2269.95 1126.72 2268.53 1127.98 2267.95 1129.32 2267.08 1131.29 2266.98 1131.55 2266.34 1133.62 2264.8 1138.56 2264.63 1138.48 2264.53 1132.81L2264.45 1128.33 2266.25 1126.56C2267.99 1124.85 2271.07 1119.45 2271.07 1118.1 2271.07 1117.85 2271.2 1117.56 2271.36 1117.46 2271.52 1117.36 2271.65 1117.07 2271.65 1116.81 2271.65 1116.3 2272.2 1115.8 2273.57 1115.05 2275.2 1114.16 2277.84 1113.78 2277.82 1114.45M2251.31 1115.25C2251.96 1115.25 2253.42 1116.52 2253.42 1117.09 2253.42 1117.68 2254.95 1120.37 2256.19 1121.96 2258 1124.28 2258.72 1125.68 2258.72 1126.87 2258.72 1128.1 2258.7 1128.1 2257.15 1127.07 2256.48 1126.62 2255.53 1126.06 2255.04 1125.83 2250.79 1123.79 2248.61 1121.19 2249.46 1119.17 2250 1117.86 2250 1116.51 2249.45 1115.55 2248.85 1114.49 2248.91 1114.36 2249.82 1114.83 2250.27 1115.06 2250.93 1115.25 2251.31 1115.25M2247.16 1115.03C2248.45 1116.74 2248.15 1118.96 2246.76 1117.97 2244.86 1116.62 2244.68 1116.2 2245.62 1115.39 2246.57 1114.57 2246.77 1114.52 2247.16 1115.03M2281.93 1115.41C2282.3 1115.78 2282.26 1115.93 2281.63 1116.6 2279.51 1118.87 2278.4 1118.91 2279.03 1116.69 2279.64 1114.58 2280.63 1114.14 2281.93 1115.41M2263.57 1117.04C2263.89 1117.18 2264.52 1117.43 2264.96 1117.59 2265.56 1117.81 2265.77 1118.08 2265.77 1118.64 2265.77 1119.06 2266.04 1119.94 2266.36 1120.61 2266.68 1121.28 2266.95 1122.19 2266.95 1122.63 2266.95 1124.2 2263.97 1126.44 2263.58 1125.17 2263.52 1124.97 2263.3 1124.15 2263.08 1123.35 2262.81 1122.37 2262.23 1121.41 2261.25 1120.33 2259.65 1118.58 2259.66 1117.94 2261.29 1116.96 2262.04 1116.5 2262.38 1116.51 2263.57 1117.04M2244.55 1118.36C2245.87 1119.02 2247.33 1120.85 2247.8 1122.43 2248.29 1124.1 2250.8 1126.87 2252.1 1127.18 2255.73 1128.05 2259.25 1131.32 2258.45 1133.08 2258.27 1133.47 2258.13 1134.12 2258.13 1134.51 2258.13 1135.64 2257.66 1135.37 2256.4 1133.54 2254.93 1131.39 2253.56 1130.11 2250.67 1128.19 2249.4 1127.34 2248.14 1126.48 2247.88 1126.26 2243.83 1123.02 2241.07 1120.22 2241.07 1119.36 2241.07 1118.06 2242.89 1117.53 2244.55 1118.36M2268.13 1118.35C2268.13 1118.95 2267.25 1119.26 2266.94 1118.76 2266.61 1118.24 2266.85 1117.9 2267.55 1117.9 2267.87 1117.9 2268.13 1118.1 2268.13 1118.35M2285.33 1118.49C2286.33 1119.59 2282.51 1123.98 2277.98 1126.93 2273.59 1129.78 2272.09 1131.09 2270.43 1133.54 2269.03 1135.61 2268.71 1135.65 2268.71 1133.8 2268.71 1131.04 2270.4 1128.71 2273.08 1127.75 2276.32 1126.58 2278.35 1124.78 2279.03 1122.49 2280.02 1119.12 2283.76 1116.75 2285.33 1118.49M2268.71 1120.4C2268.71 1120.64 2268.58 1120.84 2268.42 1120.84 2268.26 1120.84 2268.13 1120.64 2268.13 1120.4 2268.13 1120.15 2268.26 1119.96 2268.42 1119.96 2268.58 1119.96 2268.71 1120.15 2268.71 1120.4M2294 1121.41C2294.89 1121.55 2296.48 1121.8 2297.53 1121.96 2299.97 1122.32 2301.06 1122.61 2301.06 1122.88 2301.06 1123.5 2297.53 1127.14 2296.35 1127.73 2292.04 1129.9 2288.51 1130.41 2290.55 1128.57 2291.47 1127.74 2294.79 1125.54 2295.13 1125.54 2295.77 1125.54 2296.17 1124.64 2295.73 1124.2 2295.36 1123.84 2295.1 1123.93 2293.7 1124.94 2292.81 1125.58 2291.99 1126.11 2291.88 1126.12 2290.96 1126.16 2288.27 1127.8 2287.37 1128.88 2286.72 1129.66 2285.7 1130.42 2284.78 1130.83 2281.84 1132.13 2279.43 1133.3 2278.01 1134.13 2276.03 1135.29 2275.98 1134.93 2277.87 1133.11 2283.68 1127.49 2283.12 1127.92 2285.34 1127.48 2289.79 1126.61 2294.03 1123.98 2292.87 1122.82 2292.63 1122.58 2292.36 1122.65 2291.87 1123.1 2289.38 1125.37 2284.17 1126.52 2286.14 1124.36 2286.51 1123.96 2287.33 1122.98 2287.97 1122.2L2289.13 1120.77 2290.76 1120.96C2291.65 1121.06 2293.11 1121.26 2294 1121.41M2239.72 1123.29C2241.83 1125.69 2241.59 1126.16 2238.74 1125.18 2235.47 1124.05 2234.66 1123.1 2236.15 1122.1 2237.58 1121.14 2237.94 1121.26 2239.72 1123.29M2235.05 1124.8C2236.29 1125.74 2236.94 1126.09 2239.08 1126.95 2239.51 1127.13 2240.57 1127.37 2241.43 1127.47 2243.17 1127.7 2243.65 1128.04 2247.98 1132.12 2250.82 1134.81 2251.1 1135.45 2248.83 1134.13 2247.35 1133.27 2245.45 1132.34 2242.4 1130.98 2241.22 1130.45 2240.21 1129.71 2239.36 1128.74 2238.66 1127.95 2237.97 1127.3 2237.83 1127.3 2236.63 1127.3 2232.71 1124.83 2232.94 1124.23 2233.2 1123.56 2233.57 1123.66 2235.05 1124.8M2305.76 1125.57C2305.44 1126.71 2304.52 1127.71 2303.48 1128.02 2302.56 1128.3 2302.63 1127.72 2303.71 1126.03 2304.19 1125.26 2304.59 1124.52 2304.59 1124.38 2304.59 1123.95 2305.3 1123.82 2305.69 1124.18 2305.95 1124.43 2305.97 1124.8 2305.76 1125.57M2215.08 1124.88C2215.26 1125 2215.51 1125.43 2215.63 1125.83 2215.75 1126.24 2216.24 1127.07 2216.73 1127.69 2217.82 1129.07 2217.75 1129.15 2215.76 1128.69 2214.03 1128.3 2210.97 1125.82 2211.54 1125.27 2212 1124.82 2214.56 1124.54 2215.08 1124.88M2309.29 1125.96C2309.29 1126.13 2308.89 1126.73 2308.41 1127.3 2307.93 1127.87 2307.53 1128.47 2307.53 1128.64 2307.53 1129.47 2306.16 1130.18 2304.29 1130.34 2303.24 1130.43 2301.69 1130.59 2300.84 1130.7 2299.31 1130.9 2298.86 1130.64 2299.66 1130.03 2300.25 1129.59 2302.35 1129.06 2303.55 1129.06 2305.13 1129.06 2306.19 1128.19 2306.65 1126.5 2306.86 1125.73 2307.08 1125 2307.14 1124.89 2307.3 1124.59 2309.29 1125.58 2309.29 1125.96M2218.77 1125.55C2219.63 1125.78 2219.93 1126.07 2220.31 1127 2220.9 1128.49 2221.68 1128.95 2223.98 1129.17 2226 1129.37 2227.28 1129.85 2227.49 1130.5 2227.6 1130.83 2227.32 1130.87 2226.04 1130.71 2225.17 1130.6 2223.67 1130.44 2222.69 1130.36 2220.5 1130.16 2219.71 1129.79 2219.35 1128.76 2219.2 1128.31 2218.6 1127.42 2218.02 1126.78 2216.53 1125.13 2216.64 1124.95 2218.77 1125.55M2233.08 1126.35C2237.51 1129.03 2238.14 1130.53 2234.33 1129.32 2229.23 1127.69 2227.14 1125.95 2229.7 1125.45 2231.02 1125.19 2231.3 1125.27 2233.08 1126.35M2209.81 1126.76C2210.75 1127.64 2210.68 1128.18 2209.63 1128.18 2207.61 1128.18 2206.58 1127.18 2207.92 1126.53 2208.9 1126.04 2209.06 1126.06 2209.81 1126.76M2223.48 1126.91C2224.11 1127.48 2224.19 1128.18 2223.62 1128.18 2223.12 1128.18 2221.67 1127.07 2221.67 1126.69 2221.67 1126.24 2222.91 1126.39 2223.48 1126.91M2311.58 1127.46C2312.51 1128.12 2312.41 1128.31 2310.87 1128.72 2309.19 1129.17 2309.03 1129.04 2309.92 1127.92 2310.74 1126.88 2310.74 1126.88 2311.58 1127.46" stroke="#FCDD9C" stroke-width="4.58333" stroke-miterlimit="8" fill="#2A2811" fill-rule="evenodd"/><path d="M2374.9 1063.89C2372.46 1064.39 2368.03 1065.77 2367.46 1066.2 2367.19 1066.4 2364.47 1066.7 2361.42 1066.87 2352.9 1067.33 2348.83 1068.6 2342.38 1072.8 2339.56 1074.64 2338.89 1074.85 2334.29 1075.28 2331.71 1075.53 2327.96 1076.67 2326.41 1077.67 2325.66 1078.16 2324.3 1078.27 2318.9 1078.28 2311.76 1078.28 2310.78 1078.47 2305.91 1080.75 2299.98 1083.52 2289.16 1093.84 2286.37 1099.39 2283.31 1105.47 2288.59 1110.37 2297.73 1109.95 2300.04 1109.84 2300.42 1109.93 2301.96 1110.98 2303.99 1112.36 2306.84 1113.13 2308.73 1112.81 2309.59 1112.67 2310.66 1112.79 2311.58 1113.15 2312.39 1113.46 2314.32 1113.89 2315.87 1114.1 2317.42 1114.31 2319.96 1114.99 2321.51 1115.61 2324.63 1116.85 2329.94 1117.19 2332.8 1116.33 2334.23 1115.9 2340.28 1117.05 2341.23 1117.93 2341.43 1118.11 2341.85 1118.26 2342.17 1118.26 2344.09 1118.28 2351.22 1122.73 2355.44 1126.55L2358.44 1129.27 2358.24 1131.18C2358.13 1132.23 2357.84 1134.27 2357.61 1135.71 2356.64 1141.61 2356.39 1145.35 2356.09 1158.61 2355.92 1166.25 2355.59 1174.19 2355.37 1176.26 2353.96 1188.92 2353.64 1197.59 2354.22 1207.36 2354.89 1218.77 2355.77 1220.93 2360.77 1223.33L2363.2 1224.5 2374.86 1224.5C2389.38 1224.5 2391.39 1223.84 2394.14 1218.16 2396.14 1214.04 2396.27 1193.17 2394.41 1176.63 2394.22 1174.98 2393.91 1167.21 2393.72 1159.36 2393.39 1145.73 2393.16 1142.23 2392.17 1135.9 2391.93 1134.35 2391.65 1132.23 2391.56 1131.19L2391.38 1129.29 2394.01 1126.81C2400.76 1120.46 2412.65 1115.03 2416.99 1116.33 2420.43 1117.36 2427.84 1116.52 2429.98 1114.86 2430.18 1114.7 2431.79 1114.37 2433.55 1114.13 2435.31 1113.89 2437.37 1113.46 2438.13 1113.17 2439.52 1112.65 2439.53 1112.65 2441.14 1114.2 2446.82 1119.65 2458.36 1118.38 2463.53 1111.73 2465.42 1109.31 2464.62 1107.77 2460.48 1105.88 2456.16 1103.92 2450.84 1099.7 2450.84 1098.25 2450.84 1096.68 2446.43 1091.26 2443.7 1089.47 2442.15 1088.45 2441.16 1088.01 2436.18 1086.17 2434.17 1085.42 2432.27 1083.7 2431.65 1082.07 2430.01 1077.76 2428.7 1076.53 2423.96 1074.89 2420.1 1073.56 2413 1072.49 2407.61 1072.44 2404.55 1072.42 2403.94 1072.18 2400.22 1069.62 2396.29 1066.9 2392.16 1065.17 2386.45 1063.86 2384.33 1063.37 2377.3 1063.39 2374.9 1063.89M2359.86 1090.68C2359.86 1091.01 2359.49 1091.23 2358.92 1091.23 2357.83 1091.23 2357.69 1090.68 2358.63 1090.15 2359.39 1089.72 2359.86 1089.93 2359.86 1090.68M2365.3 1091.23C2366.03 1091.64 2367.26 1092.33 2368.04 1092.77 2368.81 1093.2 2369.5 1093.6 2369.56 1093.66 2369.62 1093.72 2369.13 1094.3 2368.47 1094.96L2367.27 1096.15 2365.88 1094.8C2362.68 1091.68 2362.33 1089.55 2365.3 1091.23M2393.31 1092.82C2393.3 1093.08 2393.05 1093.71 2392.76 1094.23 2392.03 1095.5 2392.06 1097.69 2392.81 1099 2394.03 1101.12 2390.98 1104.72 2385.85 1107.23 2383.24 1108.51 2381.44 1110.11 2380.69 1111.82 2379.58 1114.34 2379.45 1114.68 2378.63 1117.32 2376.66 1123.63 2376.45 1123.53 2376.32 1116.28L2376.21 1110.56 2378.51 1108.3C2380.74 1106.11 2384.67 1099.22 2384.67 1097.49 2384.67 1097.17 2384.84 1096.8 2385.05 1096.67 2385.26 1096.54 2385.43 1096.17 2385.43 1095.84 2385.43 1095.2 2386.13 1094.55 2387.87 1093.6 2389.96 1092.45 2393.33 1091.97 2393.31 1092.82M2359.41 1093.85C2360.25 1093.85 2362.12 1095.47 2362.12 1096.2 2362.12 1096.96 2364.07 1100.39 2365.65 1102.43 2367.96 1105.39 2368.88 1107.17 2368.88 1108.69 2368.88 1110.26 2368.86 1110.27 2366.88 1108.95 2366.02 1108.38 2364.8 1107.66 2364.18 1107.37 2358.75 1104.76 2355.96 1101.44 2357.04 1098.85 2357.74 1097.19 2357.74 1095.45 2357.04 1094.23 2356.26 1092.87 2356.35 1092.7 2357.51 1093.31 2358.08 1093.61 2358.93 1093.85 2359.41 1093.85M2354.11 1093.57C2355.76 1095.75 2355.37 1098.58 2353.59 1097.32 2351.17 1095.59 2350.93 1095.06 2352.14 1094.02 2353.36 1092.97 2353.61 1092.92 2354.11 1093.57M2398.56 1094.06C2399.04 1094.52 2398.99 1094.72 2398.19 1095.57 2395.47 1098.48 2394.05 1098.52 2394.86 1095.68 2395.63 1092.99 2396.9 1092.43 2398.56 1094.06M2375.09 1096.13C2375.5 1096.32 2376.3 1096.63 2376.87 1096.84 2377.64 1097.12 2377.91 1097.47 2377.91 1098.18 2377.91 1098.71 2378.24 1099.84 2378.66 1100.7 2379.07 1101.55 2379.41 1102.72 2379.41 1103.28 2379.41 1105.28 2375.6 1108.15 2375.11 1106.52 2375.03 1106.27 2374.74 1105.22 2374.46 1104.2 2374.12 1102.94 2373.37 1101.71 2372.12 1100.34 2370.08 1098.1 2370.09 1097.29 2372.17 1096.03 2373.14 1095.44 2373.57 1095.46 2375.09 1096.13M2350.77 1097.82C2352.46 1098.66 2354.33 1101 2354.92 1103.02 2355.55 1105.15 2358.76 1108.69 2360.42 1109.09 2365.07 1110.2 2369.57 1114.38 2368.55 1116.63 2368.32 1117.13 2368.13 1117.95 2368.13 1118.46 2368.13 1119.9 2367.53 1119.56 2365.93 1117.22 2364.04 1114.47 2362.29 1112.84 2358.6 1110.38 2356.97 1109.3 2355.36 1108.19 2355.02 1107.92 2349.85 1103.77 2346.32 1100.2 2346.32 1099.1 2346.32 1097.44 2348.65 1096.76 2350.77 1097.82M2380.91 1097.81C2380.91 1098.58 2379.79 1098.97 2379.4 1098.34 2378.98 1097.66 2379.29 1097.23 2380.18 1097.23 2380.59 1097.23 2380.91 1097.49 2380.91 1097.81M2402.91 1097.99C2404.19 1099.4 2399.31 1105 2393.51 1108.77 2387.9 1112.42 2385.99 1114.09 2383.86 1117.22 2382.07 1119.86 2381.67 1119.92 2381.67 1117.55 2381.67 1114.03 2383.82 1111.05 2387.25 1109.82 2391.39 1108.33 2393.98 1106.03 2394.85 1103.09 2396.12 1098.8 2400.9 1095.77 2402.91 1097.99M2381.67 1100.42C2381.67 1100.73 2381.5 1100.99 2381.29 1100.99 2381.08 1100.99 2380.91 1100.73 2380.91 1100.42 2380.91 1100.11 2381.08 1099.86 2381.29 1099.86 2381.5 1099.86 2381.67 1100.11 2381.67 1100.42M2414 1101.72C2415.14 1101.9 2417.17 1102.22 2418.51 1102.42 2421.63 1102.89 2423.02 1103.25 2423.02 1103.6 2423.02 1104.39 2418.5 1109.05 2417.01 1109.8 2411.49 1112.56 2406.98 1113.21 2409.58 1110.87 2410.76 1109.81 2415.01 1106.99 2415.44 1106.99 2416.25 1106.99 2416.78 1105.85 2416.21 1105.29 2415.74 1104.82 2415.4 1104.94 2413.61 1106.23 2412.48 1107.05 2411.43 1107.73 2411.28 1107.73 2410.1 1107.78 2406.67 1109.89 2405.52 1111.26 2404.69 1112.26 2403.39 1113.24 2402.21 1113.75 2398.45 1115.42 2395.37 1116.92 2393.56 1117.97 2391.02 1119.45 2390.95 1118.99 2393.37 1116.66 2400.8 1109.49 2400.08 1110.03 2402.92 1109.48 2408.61 1108.36 2414.04 1105 2412.55 1103.52 2412.24 1103.21 2411.91 1103.3 2411.28 1103.88 2408.1 1106.78 2401.43 1108.25 2403.95 1105.49 2404.42 1104.97 2405.47 1103.73 2406.29 1102.72L2407.77 1100.9 2409.85 1101.14C2410.99 1101.27 2412.86 1101.53 2414 1101.72M2344.6 1104.13C2347.3 1107.19 2346.99 1107.78 2343.34 1106.53 2339.16 1105.09 2338.13 1103.88 2340.03 1102.61 2341.86 1101.37 2342.31 1101.52 2344.6 1104.13M2338.63 1106.04C2340.21 1107.25 2341.04 1107.69 2343.77 1108.8 2344.33 1109.03 2345.69 1109.33 2346.78 1109.47 2349.01 1109.75 2349.63 1110.19 2355.15 1115.4 2358.79 1118.84 2359.14 1119.66 2356.24 1117.98 2354.35 1116.88 2351.92 1115.69 2348.02 1113.94 2346.52 1113.27 2345.22 1112.32 2344.13 1111.09 2343.24 1110.08 2342.36 1109.25 2342.18 1109.25 2340.65 1109.25 2335.63 1106.09 2335.93 1105.32 2336.26 1104.47 2336.73 1104.59 2338.63 1106.04M2429.03 1107.03C2428.63 1108.49 2427.44 1109.77 2426.12 1110.17 2424.95 1110.52 2425.03 1109.79 2426.41 1107.62 2427.03 1106.64 2427.53 1105.69 2427.53 1105.51 2427.53 1104.96 2428.44 1104.8 2428.94 1105.26 2429.28 1105.58 2429.3 1106.05 2429.03 1107.03M2313.1 1106.15C2313.33 1106.31 2313.64 1106.85 2313.79 1107.37 2313.94 1107.88 2314.58 1108.95 2315.2 1109.74 2316.59 1111.51 2316.5 1111.61 2313.97 1111.03 2311.75 1110.52 2307.84 1107.35 2308.56 1106.64 2309.15 1106.07 2312.43 1105.72 2313.1 1106.15M2433.55 1107.53C2433.55 1107.75 2433.04 1108.52 2432.42 1109.25 2431.8 1109.97 2431.29 1110.74 2431.29 1110.96 2431.29 1112.01 2429.55 1112.92 2427.16 1113.13 2425.81 1113.24 2423.82 1113.45 2422.74 1113.59 2420.79 1113.84 2420.21 1113.51 2421.24 1112.74 2421.99 1112.17 2424.68 1111.5 2426.2 1111.5 2428.23 1111.5 2429.59 1110.38 2430.17 1108.22 2430.44 1107.24 2430.72 1106.31 2430.8 1106.16 2431.01 1105.78 2433.55 1107.05 2433.55 1107.53M2317.81 1107C2318.91 1107.31 2319.3 1107.68 2319.77 1108.86 2320.54 1110.77 2321.53 1111.36 2324.46 1111.64 2327.05 1111.89 2328.69 1112.51 2328.96 1113.33 2329.1 1113.76 2328.74 1113.81 2327.11 1113.6 2325.99 1113.46 2324.07 1113.26 2322.83 1113.15 2320.02 1112.9 2319.02 1112.43 2318.55 1111.11 2318.36 1110.54 2317.59 1109.4 2316.84 1108.58 2314.94 1106.48 2315.08 1106.25 2317.81 1107M2336.11 1108.03C2341.77 1111.45 2342.58 1113.37 2337.7 1111.82 2331.19 1109.75 2328.51 1107.51 2331.78 1106.88 2333.47 1106.55 2333.84 1106.65 2336.11 1108.03M2306.36 1108.56C2307.55 1109.68 2307.46 1110.37 2306.12 1110.37 2303.55 1110.37 2302.23 1109.1 2303.94 1108.25 2305.18 1107.64 2305.4 1107.66 2306.36 1108.56M2323.83 1108.74C2324.64 1109.47 2324.74 1110.37 2324.01 1110.37 2323.38 1110.37 2321.51 1108.95 2321.51 1108.47 2321.51 1107.89 2323.1 1108.08 2323.83 1108.74M2436.47 1109.45C2437.67 1110.29 2437.53 1110.53 2435.57 1111.06 2433.42 1111.63 2433.22 1111.47 2434.35 1110.04 2435.4 1108.71 2435.4 1108.71 2436.47 1109.45" stroke="#FCDD9C" stroke-width="4.58333" stroke-miterlimit="8" fill="#2A2811" fill-rule="evenodd"/><path d="M2347.93 1393.21C2428.22 1377 2521.78 1416.08 2592.53 1365.74 2644.56 1318.23 2687.51 1271.91 2744.89 1230.24 2805.22 1181.1 2855.13 1094.87 2833.01 1014.77 2745.5 748.984 2336.88 899.755 2308.75 813.321 2358.74 780.161 2392.11 796.817 2411.86 796.672 2563.15 812.214 2634.07 793.819 2691.03 840.709 2654.51 793.283 2588.2 692.29 2524.78 747.792 2456.98 767.325 2475.97 656.28 2537.59 687.821 2581.8 713.188 2479.03 615.843 2468.57 599.575 2429.23 553.899 2328.23 533.606 2412.08 467.217 2487.35 446.137 2474.9 549.051 2502.73 578.258 2606.49 682.499 2709.77 787.655 2807.57 897.63 2857.52 908.648 2804.91 814.008 2780.57 800.254 2726.74 739.5 2674.4 698.774 2611.83 652.495 2564.29 617.011 2653.04 581.362 2653.39 630.267 2692.78 691.148 2762.8 740.892 2814.28 789.828 2850.22 821.125 2846.13 896.269 2879.94 914.609 2895.02 850.977 2853.97 757.826 2803.77 714.631 2694.41 654.173 2660.4 422.314 2743.07 415.937 2764.33 478.348 2721.61 566.223 2774.73 622.116 2805.83 648.676 2848.27 741.095 2870.48 726.571 2883.06 640.047 2867.45 552.328 2870.33 466.034 2870.53 389.862 2939.84 434.765 2919.96 486.949 2917.31 567.453 2909.21 648.006 2914.39 728.582 2959.29 717.024 2968.44 668.168 3016.37 629.834 3067.15 569.657 3015.42 468.901 3057.14 416.195 3088.13 472.879 3092.85 564.387 3065.35 627.696 3022.71 692.283 2942.29 730.002 2916.89 805.325 2911.09 833.827 2909.02 955.755 2925.99 870.528 2964.16 795.397 3035.49 744.567 3087.32 679.323 3113.22 650.092 3177.68 541.592 3202.09 620.081 3193.08 677.549 3119.89 679.041 3090.55 724.821 3046.73 769.628 3005.23 817.34 2966.31 866.131 2953.51 931.77 3029.14 841.94 3052.03 826.896 3160.13 730.775 3259.11 623.595 3359.3 520.436 3445.72 572.153 3148.16 710.809 3252.85 706.711 3281.68 741.824 3193.3 722.617 3178.77 754.536 3152.9 767.101 3068.94 855.453 3135.94 810.849 3152.92 805.806 3517.3 766.414 3462.93 832.685 3392 837.027 3320.44 824.483 3249.11 833.435 3151.59 843.631 3047.44 874.773 2980.26 949.529 2933.9 1023.35 2934.62 1133.31 3005.32 1191.87 3064.59 1253.27 3131.75 1306.87 3190.03 1369.06 3261.84 1399.09 3333.33 1395.83 3405.24 1398.71 3454.34 1353.21 3521.69 1454.72 3438.4 1445.49 3400.59 1448.6 3309.27 1398.77 3304.28 1449.28 3324.04 1476 3380.19 1534.93 3350.98 1557.64 3308.72 1527.51 3298.94 1460.17 3247.28 1445.65 3285.68 1472.66 3254.67 1547.68 3219.29 1500.12 3228.45 1413.64 3132.57 1375.61 3080.62 1324.53 3034.64 1292.15 2974.81 1196.47 2932.72 1209.57 2948.17 1279.47 3016.13 1318.65 3060.62 1369.46 3143.75 1451.4 3222.11 1542.13 3324.14 1600.82 3377.95 1638.87 3312.98 1684.75 3284.06 1630.18 3262.92 1585.01 3177.39 1560.47 3209.88 1636.21 3235.57 1663.26 3230.55 1760.21 3183.4 1709.33 3183.61 1664.36 3096.22 1641.27 3164.8 1608.97 3228.73 1560.48 3113.91 1502.71 3087.97 1460.79 3029.95 1403.65 2969.27 1348.36 2920.95 1282.39 2862.84 1310.02 3140.32 1493.59 3001.35 1498.97 2984.19 1451.23 2964.62 1400.51 2915.8 1371.35 2872.61 1430.77 2946.48 1515.87 2989.54 1561.9 3032.72 1625.44 3102.23 1667.11 3140.08 1733.63 3147.49 1785.03 3064.31 1764.25 3081.03 1721.75 3029.18 1658.06 2971.81 1599.02 2911.64 1543.2 2903.48 1559.33 2933.51 1627.13 2879.12 1597.19 2876.11 1568.73 2898.42 1529.53 2859.53 1571.97 2803.45 1627.58 2743.17 1685.55 2704.51 1751.51 2652.51 1776.18 2639.4 1715.26 2687.18 1695.28 2745.74 1629.88 2814.63 1572.13 2865.49 1500.81 2883.8 1471.9 2880.24 1348.79 2836.97 1419.49 2811.01 1464.75 2798.59 1546.82 2755.48 1486.67 2764.45 1428.82 2829.95 1404.5 2850.2 1345.1 2866.42 1304.92 2876.19 1274.89 2844.87 1317.44 2773.54 1406.24 2673.39 1471.25 2617.28 1572.02 2597.53 1607.64 2713.7 1671.89 2631.41 1664.71 2601.45 1661.81 2640.95 1735.2 2588.22 1724.04 2511.7 1697.63 2619.01 1626.44 2569.69 1583.74 2538.04 1605.08 2482.94 1691.62 2446.22 1633.53 2478.08 1584.11 2552.28 1551.38 2597.04 1504.01 2670.22 1437.53 2742.42 1368.83 2805.29 1292.41 2827.26 1267.77 2873.76 1169.82 2816.61 1231.49 2742.18 1296.92 2667.41 1362.54 2594.06 1428.84 2577.26 1459.11 2570.7 1558.68 2519.79 1503.29 2528.73 1478.62 2545.13 1420.91 2513.11 1470.84 2479.72 1500.4 2481.91 1624.36 2416.66 1564.28 2402.66 1522.99 2509.41 1448.64 2424.92 1446.87 2388.22 1451.2 2258.74 1450.09 2347.93 1393.21Z" stroke="#FCDD9C" stroke-width="10.3125" stroke-miterlimit="8" fill="#272319" fill-rule="evenodd"/><path d="M2824.5 361.5C2824.5 318.422 2856.74 283.5 2896.5 283.5 2936.26 283.5 2968.5 318.422 2968.5 361.5 2968.5 404.578 2936.26 439.5 2896.5 439.5 2856.74 439.5 2824.5 404.578 2824.5 361.5Z" stroke="#FCDD9C" stroke-width="19.4792" stroke-miterlimit="8" fill="#211A19" fill-rule="evenodd"/><path d="M3001.5 368C3001.5 335.691 3027.69 309.5 3060 309.5 3092.31 309.5 3118.5 335.691 3118.5 368 3118.5 400.309 3092.31 426.5 3060 426.5 3027.69 426.5 3001.5 400.309 3001.5 368Z" stroke="#FCDD9C" stroke-width="19.4792" stroke-miterlimit="8" fill="#0B3317" fill-rule="evenodd"/><path d="M3126.5 479C3126.5 432.332 3164.11 394.5 3210.5 394.5 3256.89 394.5 3294.5 432.332 3294.5 479 3294.5 525.668 3256.89 563.5 3210.5 563.5 3164.11 563.5 3126.5 525.668 3126.5 479Z" stroke="#FCDD9C" stroke-width="19.4792" stroke-miterlimit="8" fill="#24201B" fill-rule="evenodd"/><path d="M3344.5 673.5C3344.5 630.422 3379.42 595.5 3422.5 595.5 3465.58 595.5 3500.5 630.422 3500.5 673.5 3500.5 716.578 3465.58 751.5 3422.5 751.5 3379.42 751.5 3344.5 716.578 3344.5 673.5Z" stroke="#FCDD9C" stroke-width="19.4792" stroke-miterlimit="8" fill="#241F1C" fill-rule="evenodd"/><path d="M3471.5 816.5C3471.5 780.601 3500.6 751.5 3536.5 751.5 3572.4 751.5 3601.5 780.601 3601.5 816.5 3601.5 852.398 3572.4 881.5 3536.5 881.5 3500.6 881.5 3471.5 852.398 3471.5 816.5Z" stroke="#FCDD9C" stroke-width="19.4792" stroke-miterlimit="8" fill="#1D180E" fill-rule="evenodd"/><path d="M2679.5 368.5C2679.5 339.781 2702.78 316.5 2731.5 316.5 2760.22 316.5 2783.5 339.781 2783.5 368.5 2783.5 397.219 2760.22 420.5 2731.5 420.5 2702.78 420.5 2679.5 397.219 2679.5 368.5Z" stroke="#FCDD9C" stroke-width="19.4792" stroke-miterlimit="8" fill="#1A2614" fill-rule="evenodd"/><path d="M2502.5 482C2502.5 435.332 2540.33 397.5 2587 397.5 2633.67 397.5 2671.5 435.332 2671.5 482 2671.5 528.668 2633.67 566.5 2587 566.5 2540.33 566.5 2502.5 528.668 2502.5 482Z" stroke="#F8DEAE" stroke-width="19.4792" stroke-miterlimit="8" fill="#F8DEAE" fill-rule="evenodd"/><path d="M2284.5 678C2284.5 631.332 2322.11 593.5 2368.5 593.5 2414.89 593.5 2452.5 631.332 2452.5 678 2452.5 724.668 2414.89 762.5 2368.5 762.5 2322.11 762.5 2284.5 724.668 2284.5 678Z" stroke="#FCDD9C" stroke-width="19.4792" stroke-miterlimit="8" fill="#3AC3BE" fill-rule="evenodd"/><path d="M2766.5 513.5C2766.5 491.961 2783.96 474.5 2805.5 474.5 2827.04 474.5 2844.5 491.961 2844.5 513.5 2844.5 535.039 2827.04 552.5 2805.5 552.5 2783.96 552.5 2766.5 535.039 2766.5 513.5Z" stroke="#FCDD9C" stroke-width="19.4792" stroke-miterlimit="8" fill="#1E1D1B" fill-rule="evenodd"/><path d="M2941.5 513.5C2941.5 491.961 2958.96 474.5 2980.5 474.5 3002.04 474.5 3019.5 491.961 3019.5 513.5 3019.5 535.039 3002.04 552.5 2980.5 552.5 2958.96 552.5 2941.5 535.039 2941.5 513.5Z" stroke="#FCDD9C" stroke-width="19.4792" stroke-miterlimit="8" fill="#1E1D1B" fill-rule="evenodd"/><path d="M2586 402C2586 402 2537 471.474 2537 502.658 2537 529.895 2558.95 552 2586 552 2613.05 552 2635 529.895 2635 502.658 2635 471.276 2586 402 2586 402Z" fill="#1C1817" fill-rule="evenodd"/><path d="M2367 601C2367 601 2318 670.474 2318 701.658 2318 728.895 2339.95 751 2367 751 2394.05 751 2416 728.895 2416 701.658 2416 670.276 2367 601 2367 601Z" fill="#1C1817" fill-rule="evenodd"/><path d="M2183 822C2183 786.101 2212.1 757 2248 757 2283.9 757 2313 786.101 2313 822 2313 857.898 2283.9 887 2248 887 2212.1 887 2183 857.898 2183 822Z" stroke="#FCDD9C" stroke-width="16.0417" stroke-miterlimit="8" fill="#0D271E" fill-rule="evenodd"/><path d="M2216 821.5C2216 803.551 2230.55 789 2248.5 789 2266.45 789 2281 803.551 2281 821.5 2281 839.449 2266.45 854 2248.5 854 2230.55 854 2216 839.449 2216 821.5Z" stroke="#FFCC69" stroke-width="8.02083" stroke-miterlimit="8" fill="#0D271E" fill-rule="evenodd"/><path d="M2232 822C2232 813.164 2239.16 806 2248 806 2256.84 806 2264 813.164 2264 822 2264 830.837 2256.84 838 2248 838 2239.16 838 2232 830.837 2232 822Z" fill="#FADB66" fill-rule="evenodd"/><path d="M3410.06 729 3409.5 729C3407.04 728.789 3404.97 726.674 3404.4 723.925L3391.38 646.527 3383.26 674.018C3382.51 676.556 3380.43 678.247 3377.98 678.247L3344 678.247 3344 665.559 3373.82 665.559 3387.6 619.247C3388.36 616.498 3390.81 614.806 3393.26 615.018 3395.72 615.229 3397.98 617.344 3398.36 620.093L3411.57 699.394 3430.82 642.297C3431.77 639.76 3433.84 638.068 3436.3 638.279 3438.75 638.491 3440.83 640.183 3441.58 642.932L3452.34 682.477 3464.42 667.674C3465.55 666.405 3467.06 665.559 3468.57 665.559L3495 665.559 3495 678.247 3471.03 678.247 3453.85 699.394C3452.53 701.086 3450.46 701.721 3448.38 701.298 3446.3 700.875 3444.79 699.183 3444.23 696.857L3435.73 664.29 3415.35 724.982C3414.59 727.308 3412.33 729 3410.06 729Z" fill="#FCDD9C" fill-rule="evenodd"/><path d="M3039.17 351.498C3027.23 363.446 3027.23 382.717 3039.17 394.665 3042.95 398.442 3047.5 400.986 3052.28 402.374 3052.2 399.059 3052.28 395.59 3052.36 391.813 3052.66 382.409 3053.74 372.08 3055.13 363.909 3055.21 363.369 3055.36 362.907 3055.75 362.521 3056.6 361.673 3057.98 361.673 3058.83 362.521 3059.37 363.061 3059.53 363.678 3059.45 364.371L3059.45 364.371C3057.52 376.165 3056.06 392.892 3056.83 405.996 3056.83 405.996 3056.9 407.769 3056.98 408.617L3056.98 408.617C3057.6 416.172 3058.99 422.184 3061.61 424.805L3066.23 420.18C3064.54 418.484 3063.53 412.086 3063.23 403.607 3070.24 403.067 3077.02 400.138 3082.42 394.742 3086.27 390.888 3088.97 386.186 3090.28 381.176L3090.28 381.176C3097.6 355.507 3082.8 336.544 3063.84 317.581 3063.84 317.581 3050.81 340.475 3039.17 351.498Z" fill="#FCDD9C" fill-rule="evenodd"/><path d="M2711.64 357.192C2701.42 367.411 2701.42 383.893 2711.64 394.112 2714.87 397.342 2718.76 399.518 2722.85 400.705 2722.78 397.87 2722.85 394.903 2722.92 391.672 2723.18 383.629 2724.1 374.795 2725.29 367.806 2725.35 367.345 2725.49 366.949 2725.82 366.619 2726.54 365.894 2727.73 365.894 2728.45 366.62 2728.91 367.081 2729.05 367.608 2728.98 368.202L2728.98 368.202C2727.33 378.289 2726.08 392.595 2726.74 403.803 2726.74 403.803 2726.8 405.32 2726.87 406.045L2726.87 406.045C2727.4 412.506 2728.59 417.649 2730.83 419.89L2734.78 415.934C2733.33 414.484 2732.47 409.012 2732.21 401.76 2738.21 401.298 2744.01 398.793 2748.63 394.178 2751.92 390.881 2754.23 386.86 2755.35 382.574L2755.35 382.574C2761.62 360.62 2748.96 344.401 2732.74 328.183 2732.74 328.183 2721.6 347.764 2711.64 357.192Z" fill="#FCDD9C" fill-rule="evenodd"/><path d="M3255.62 501C3252.87 501.107 3250.16 501.682 3247.6 502.701 3245.9 503.408 3244.09 503.833 3242.25 503.961 3240.41 503.833 3238.6 503.408 3236.9 502.701 3234.34 501.682 3231.63 501.107 3228.88 501 3226.12 501.107 3223.41 501.682 3220.85 502.701 3219.15 503.408 3217.34 503.833 3215.5 503.961 3213.66 503.833 3211.85 503.408 3210.15 502.701 3207.59 501.682 3204.88 501.107 3202.13 501 3199.37 501.107 3196.66 501.682 3194.1 502.701 3192.4 503.408 3190.59 503.833 3188.75 503.961 3186.91 503.833 3185.1 503.408 3183.4 502.701 3180.84 501.682 3178.13 501.107 3175.38 501 3172.62 501.107 3169.91 501.682 3167.35 502.701 3165.65 503.408 3163.84 503.833 3162 503.961L3162 512C3164.75 511.893 3167.47 511.318 3170.03 510.298 3171.72 509.565 3173.53 509.112 3175.38 508.959 3177.22 509.112 3179.03 509.565 3180.73 510.298 3183.28 511.318 3186 511.893 3188.75 512 3191.5 511.893 3194.22 511.318 3196.78 510.298 3198.47 509.565 3200.28 509.112 3202.13 508.959 3203.96 509.086 3205.77 509.512 3207.48 510.218 3210.03 511.271 3212.74 511.874 3215.5 512 3218.25 511.893 3220.97 511.318 3223.53 510.298 3225.22 509.565 3227.03 509.112 3228.88 508.959 3230.72 509.112 3232.53 509.565 3234.23 510.298 3236.78 511.318 3239.5 511.893 3242.25 512 3245 511.893 3247.72 511.318 3250.28 510.298 3251.97 509.565 3253.78 509.112 3255.62 508.959 3257.46 509.086 3259.27 509.512 3260.98 510.218 3263.53 511.271 3266.24 511.874 3269 512L3269 503.961C3267.16 503.833 3265.35 503.408 3263.65 502.701 3261.09 501.682 3258.38 501.107 3255.62 501Z" fill="#FCDD9C" fill-rule="evenodd"/><path d="M3263.65 486.894C3261.09 485.896 3258.37 485.333 3255.62 485.228 3252.87 485.333 3250.15 485.896 3247.59 486.894 3245.89 487.586 3244.08 488.003 3242.24 488.128 3240.4 488.003 3238.59 487.586 3236.88 486.894 3235.95 486.538 3235 486.24 3234.03 486.002 3222.87 481.029 3217.17 471.018 3217.98 463.277 3218.64 456.598 3222.74 449.08 3230.15 448.332 3237.3 447.549 3243.84 452.325 3245.13 459.262 3245.31 460.44 3246.38 461.285 3247.59 461.204 3248.23 461.146 3248.82 460.839 3249.24 460.351 3249.63 459.858 3249.81 459.229 3249.73 458.606 3247.34 441.089 3231.41 429.32 3212.8 431.196 3202.69 432.219 3193.21 438.413 3184.59 449.565 3183.44 451.048 3182.31 452.544 3181.19 454.039 3175.21 461.912 3169.51 469.522 3162 474.666L3162 496C3164.75 495.895 3167.47 495.332 3170.03 494.334 3171.73 493.615 3173.54 493.172 3175.38 493.022 3177.23 493.172 3179.03 493.615 3180.73 494.334 3183.28 495.326 3185.97 495.89 3188.71 496 3191.46 495.895 3194.18 495.332 3196.74 494.334 3198.44 493.615 3200.25 493.172 3202.09 493.022 3203.93 493.147 3205.74 493.563 3207.44 494.255 3210 495.286 3212.71 495.877 3215.47 496 3218.23 495.895 3220.94 495.332 3223.5 494.334 3225.2 493.615 3227.01 493.172 3228.86 493.022 3230.7 493.172 3232.51 493.615 3234.21 494.334 3236.77 495.332 3239.48 495.895 3242.24 496 3244.99 495.895 3247.71 495.332 3250.27 494.334 3251.97 493.615 3253.77 493.172 3255.62 493.022 3257.46 493.147 3259.27 493.563 3260.97 494.255 3263.53 495.286 3266.24 495.877 3269 496L3269 488.128C3267.16 488.003 3265.35 487.586 3263.65 486.894Z" fill="#FCDD9C" fill-rule="evenodd"/><path d="M2854.46 375.657C2852.77 371.641 2851.46 367.393 2850.56 363 2845.96 363.696 2841.41 364.942 2837 366.72 2837 366.72 2846.42 394.268 2864.89 404.339 2871.57 407.789 2878.78 409.358 2886 408.932 2878.55 405.022 2862.64 394.824 2854.46 375.657Z" fill="#FCDD9C" fill-rule="evenodd"/><path d="M2942.37 363C2941.48 367.397 2940.17 371.649 2938.48 375.668 2930.32 394.825 2914.44 405.02 2907 408.928 2914.24 409.368 2921.47 407.8 2928.16 404.336 2946.6 394.272 2956 366.735 2956 366.735 2951.56 364.944 2947 363.693 2942.37 363Z" fill="#FCDD9C" fill-rule="evenodd"/><path d="M2873.94 360.036C2874.03 352.129 2875.28 344.311 2877.63 336.983 2871.25 330.122 2863.96 324.715 2856.11 321 2856.11 321 2849.78 349.941 2859.06 372.129 2865.52 387.574 2877.73 396.698 2885 401.001 2879.94 391.566 2873.94 376.832 2873.94 360.036Z" fill="#FCDD9C" fill-rule="evenodd"/><path d="M2936.85 321C2928.76 324.749 2921.28 330.23 2914.73 337.192 2917.07 344.418 2918.31 352.118 2918.4 359.904 2918.4 376.806 2912.17 391.612 2907 401.001 2914.31 396.834 2927.15 387.677 2933.86 371.954 2943.3 349.844 2936.85 321 2936.85 321Z" fill="#FCDD9C" fill-rule="evenodd"/><path d="M2913 360.501C2913 386.117 2896.5 407 2896.5 407 2896.5 407 2880 386.117 2880 360.501 2880 335.648 2896.5 314 2896.5 314 2896.5 314 2913 335.648 2913 360.501Z" fill="#FCDD9C" fill-rule="evenodd"/><path d="M3504.06 791 3491.94 791C3491.27 791 3490.65 791.349 3490.31 791.911L3484.25 802.088C3483.92 802.651 3483.92 803.349 3484.25 803.911L3490.31 814.09C3490.65 814.651 3491.27 815 3491.94 815L3504.06 815C3504.73 815 3505.35 814.651 3505.69 814.09L3511.75 803.911C3512.08 803.349 3512.08 802.651 3511.75 802.088L3505.69 791.911C3505.35 791.349 3504.73 791 3504.06 791Z" fill="#FCDD9C" fill-rule="evenodd"/><path d="M3527.34 805 3515.66 805C3515.01 805 3514.41 805.35 3514.09 805.911L3508.24 816.089C3507.92 816.651 3507.92 817.35 3508.24 817.911L3514.09 828.089C3514.41 828.651 3515.01 829 3515.66 829L3527.34 829C3527.99 829 3528.59 828.651 3528.91 828.089L3534.76 817.911C3535.08 817.349 3535.08 816.651 3534.76 816.089L3528.91 805.911C3528.59 805.35 3527.99 805 3527.34 805Z" fill="#FCDD9C" fill-rule="evenodd"/><path d="M3528.91 832.911C3528.59 832.349 3527.99 832 3527.34 832L3515.66 832C3515.01 832 3514.41 832.349 3514.09 832.911L3508.24 843.088C3507.92 843.651 3507.92 844.349 3508.24 844.911L3514.09 855.089C3514.41 855.651 3515.01 856 3515.66 856L3527.34 856C3527.99 856 3528.59 855.651 3528.91 855.089L3534.76 844.911C3535.08 844.349 3535.08 843.651 3534.76 843.088L3528.91 832.911Z" fill="#FCDD9C" fill-rule="evenodd"/><path d="M3509.76 829.088 3503.91 818.911C3503.59 818.349 3502.99 818 3502.34 818L3490.66 818C3490.01 818 3489.41 818.349 3489.09 818.911L3483.24 829.088C3482.92 829.651 3482.92 830.349 3483.24 830.911L3489.09 841.089C3489.41 841.651 3490.01 842 3490.66 842L3502.34 842C3502.99 842 3503.59 841.65 3503.91 841.089L3509.76 830.911C3510.08 830.349 3510.08 829.651 3509.76 829.088Z" fill="#FCDD9C" fill-rule="evenodd"/><path d="M3527.34 777 3515.66 777C3515.01 777 3514.41 777.349 3514.09 777.911L3508.24 788.088C3507.92 788.651 3507.92 789.348 3508.24 789.911L3514.09 800.089C3514.41 800.651 3515.01 801 3515.66 801L3527.34 801C3527.99 801 3528.59 800.651 3528.91 800.089L3534.76 789.911C3535.08 789.349 3535.08 788.651 3534.76 788.088L3528.91 777.911C3528.59 777.349 3527.99 777 3527.34 777Z" fill="#FCDD9C" fill-rule="evenodd"/><path d="M3538.66 815 3550.34 815C3550.99 815 3551.59 814.652 3551.91 814.089L3557.76 803.912C3558.08 803.349 3558.08 802.651 3557.76 802.089L3551.91 791.911C3551.59 791.35 3550.99 791 3550.34 791L3538.66 791C3538.01 791 3537.41 791.35 3537.09 791.911L3531.24 802.089C3530.92 802.651 3530.92 803.349 3531.24 803.912L3537.09 814.089C3537.41 814.652 3538.01 815 3538.66 815Z" fill="#FCDD9C" fill-rule="evenodd"/><path d="M3574.91 805.911C3574.59 805.349 3573.99 805 3573.34 805L3561.66 805C3561.01 805 3560.41 805.349 3560.09 805.911L3554.24 816.089C3553.92 816.651 3553.92 817.349 3554.24 817.911L3560.09 828.089C3560.41 828.651 3561.01 829 3561.66 829L3573.34 829C3573.99 829 3574.59 828.651 3574.91 828.089L3580.76 817.911C3581.08 817.349 3581.08 816.651 3580.76 816.089L3574.91 805.911Z" fill="#FCDD9C" fill-rule="evenodd"/><path d="M3574.91 833.911C3574.59 833.35 3573.99 833 3573.34 833L3561.66 833C3561.01 833 3560.41 833.35 3560.09 833.911L3554.24 844.089C3553.92 844.65 3553.92 845.35 3554.24 845.912L3560.09 856.089C3560.41 856.651 3561.01 857 3561.66 857L3573.34 857C3573.99 857 3574.59 856.651 3574.91 856.089L3580.76 845.912C3581.08 845.35 3581.08 844.65 3580.76 844.089L3574.91 833.911Z" fill="#FCDD9C" fill-rule="evenodd"/><path d="M3557.76 829.088 3551.91 818.911C3551.59 818.349 3550.99 818 3550.34 818L3538.66 818C3538.01 818 3537.41 818.349 3537.09 818.911L3531.24 829.088C3530.92 829.651 3530.92 830.349 3531.24 830.911L3537.09 841.089C3537.41 841.651 3538.01 842 3538.66 842L3550.34 842C3550.99 842 3551.59 841.65 3551.91 841.089L3557.76 830.911C3558.08 830.349 3558.08 829.651 3557.76 829.088Z" fill="#FCDD9C" fill-rule="evenodd"/><path d="M3557.76 775.626 3551.91 765.873C3551.59 765.334 3550.99 765 3550.34 765L3538.66 765C3538.01 765 3537.41 765.335 3537.09 765.873L3531.24 775.626C3530.92 776.165 3530.92 776.835 3531.24 777.373L3537.09 787.127C3537.41 787.665 3538.01 788 3538.66 788L3550.34 788C3550.99 788 3551.59 787.665 3551.91 787.127L3557.76 777.373C3558.08 776.835 3558.08 776.165 3557.76 775.626Z" fill="#FCDD9C" fill-rule="evenodd"/><path d="M3574.91 778.911C3574.59 778.349 3573.99 778 3573.34 778L3561.66 778C3561.01 778 3560.41 778.349 3560.09 778.911L3554.24 789.089C3553.92 789.65 3553.92 790.349 3554.24 790.911L3560.09 801.088C3560.41 801.651 3561.01 802 3561.66 802L3573.34 802C3573.99 802 3574.59 801.651 3574.91 801.088L3580.76 790.911C3581.08 790.349 3581.08 789.65 3580.76 789.089L3574.91 778.911Z" fill="#FCDD9C" fill-rule="evenodd"/><text fill="#272319" font-family="Arial Rounded MT Bold,Arial Rounded MT Bold_MSFontService,sans-serif" font-weight="700" font-size="183" transform="matrix(1 0 0 1 2320.67 2069)">AFYA MOJA</text><text fill="#272319" font-family="Arial Rounded MT Bold,Arial Rounded MT Bold_MSFontService,sans-serif" font-weight="700" font-size="92" transform="matrix(1 0 0 1 2675.3 2199)">PROJECT</text></g></svg>